SplineFontDB: 3.0
FontName: FifthLeg-Expanded
FullName: FifthLeg Expanded
FamilyName: FifthLeg
Weight: Book
Copyright: Designed by Jakub Steiner <jimmac@gmail.com> with FontForge 2.0\n\nhttp://jimmac.musichall.cz\n
UComments: "2008-8-26: Created." 
Version: 0.1
ItalicAngle: 0
UnderlinePosition: 122
UnderlineWidth: 49
Ascent: 800
Descent: 200
LayerCount: 2
Layer: 0 0 "Back" 
Layer: 1 0 "Fore" 
NeedsXUIDChange: 1
XUID: [1021 332 1867756345 9837781]
FSType: 4
OS2Version: 2
OS2_WeightWidthSlopeOnly: 0
OS2_UseTypoMetrics: 1
CreationTime: 1219682457
ModificationTime: 1240424974
PfmFamily: 33
TTFWeight: 400
TTFWidth: 7
LineGap: 0
VLineGap: 0
Panose: 0 0 4 0 0 0 0 0 0 0
OS2TypoAscent: -300
OS2TypoAOffset: 1
OS2TypoDescent: 75
OS2TypoDOffset: 1
OS2TypoLinegap: 0
OS2WinAscent: 0
OS2WinAOffset: 1
OS2WinDescent: 0
OS2WinDOffset: 1
HheadAscent: 0
HheadAOffset: 1
HheadDescent: 0
HheadDOffset: 1
OS2SubXSize: 500
OS2SubYSize: 500
OS2SubXOff: 0
OS2SubYOff: -62
OS2SupXSize: 500
OS2SupYSize: 500
OS2SupXOff: 0
OS2SupYOff: 500
OS2StrikeYSize: 50
OS2StrikeYPos: 199
OS2FamilyClass: 2048
OS2Vendor: 'SUSE'
OS2CodePages: 00000001.00000000
OS2UnicodeRanges: 80000001.00000000.00000000.00000000
Lookup: 258 0 0 "Pairwise Positioning (kerning) in Latin lookup 0"  {"Pairwise Positioning (kerning) in Latin lookup 0-1"  "Pairwise Positioning (kerning) in Latin lookup 0-2"  "Pairwise Positioning (kerning) in Latin lookup 0-3"  } ['def ' ('DFLT' <'dflt' > 'latn' <'dflt' > ) ]
DEI: 0

StartChar: b
Encoding: 98 98 0
Width: 545
VWidth: 0
Flags: W
HStem: -4 98<266.484 410.189> 404 98<275.906 410.189>
VStem: 51 93<1 46 98.1504 400.426 444 693.216> 415 93<98.91 132 132 399.09>
LayerCount: 2
Fore
SplineSet
144 741 m 1
 144 444 l 1
 345 499 l 2
 355 501 365 502 375 502 c 0
 445 502 508 442 508 392 c 2
 508 106 l 2
 508 56 445 -4 375 -4 c 0
 365 -4 355 -2 345 0 c 2
 144 46 l 5
 144 1 l 1
 51 1 l 1
 51 612 l 2
 51 689 94 731 144 741 c 1
378 404 m 2
 182 404 l 2
 162 404 144 388 144 366 c 2
 144 131 l 2
 145 109 166 94 181 94 c 0
 182 94 l 2
 378 94 l 2
 396 94 415 111 415 132 c 2
 415 366 l 2
 415 385 399 404 378 404 c 2
EndSplineSet
Validated: 1
EndChar

StartChar: h
Encoding: 104 104 1
Width: 521
VWidth: -23
Flags: W
HStem: 1 21G<51 144 389 482> 404 98<265.688 383.018>
VStem: 51 93<1 400.334 441 693.216> 389 93<1 397.507>
LayerCount: 2
Fore
SplineSet
144 741 m 1
 144 441 l 5
 321 499 l 2
 329 501 338 502 348 502 c 0
 409 502 482 451 482 392 c 2
 482 1 l 1
 389 1 l 1
 389 366 l 2
 389 388 370 404 351 404 c 2
 182 404 l 2
 160 404 144 385 144 366 c 2
 144 1 l 1
 51 1 l 1
 51 612 l 2
 51 689 94 731 144 741 c 1
EndSplineSet
Validated: 1
EndChar

StartChar: m
Encoding: 109 109 2
Width: 771
VWidth: -23
Flags: W
HStem: 1 21G<41 134 340 432 639 732> 404 98<220.719 334.157 521.062 633.324>
VStem: 41 93<1 400.334 454 498> 340 92<1 399.914> 639 93<1 397.507>
LayerCount: 2
Fore
SplineSet
319 502 m 0
 376 502 399 456 415 452 c 2
 426 451 l 5
 582 499 l 1
 595 501 606 502 618 502 c 0
 685 502 732 451 732 392 c 2
 732 1 l 1
 639 1 l 1
 639 366 l 2
 639 388 620 404 601 404 c 2
 470 404 l 2
 449 404 432 385 432 366 c 2
 432 1 l 1
 340 1 l 1
 340 366 l 2
 340 388 321 404 302 404 c 2
 171 404 l 2
 150 404 134 385 134 366 c 2
 134 1 l 1
 41 1 l 1
 41 498 l 1
 134 498 l 1
 134 454 l 5
 284 499 l 1
 296 501 308 502 319 502 c 0
EndSplineSet
Validated: 1
EndChar

StartChar: a
Encoding: 97 97 3
Width: 520
VWidth: 0
Flags: W
HStem: -6 97<121.874 248.062> 220 46<334.25 389> 220 80<121.745 293.188> 404 94<141.152 383.103>
VStem: 25 93<96.6895 214.471> 389 93<1 44 91 220 266 397.622>
LayerCount: 2
Fore
SplineSet
156 220 m 2xbc
 135 220 118 204 118 181 c 2
 118 129 l 2
 118 99 149 91 156 91 c 2
 389 91 l 1
 389 220 l 1xdc
 156 220 l 2xbc
182 498 m 2
 299 498 l 2
 411 498 482 434 482 314 c 2
 482 1 l 1
 389 1 l 1
 389 44 l 5
 169 0 l 2
 151 -4 135 -6 122 -6 c 0
 44 -6 25 60 25 119 c 2
 25 212 l 2
 25 265 49 300 119 300 c 0xbc
 135 300 151 296 170 294 c 2
 389 266 l 1
 389 366 l 2
 389 381 374 404 351 404 c 2
 118 404 l 1
 121 441 136 498 182 498 c 2
EndSplineSet
Validated: 1
EndChar

StartChar: u
Encoding: 117 117 4
Width: 538
VWidth: -23
Flags: W
HStem: -1 95<136.793 316.938> 32 62<350.423 400.217>
VStem: 40 92<99.0064 498> 404 94<1 32 97.8023 131 131 498>
LayerCount: 2
Fore
SplineSet
40 498 m 1xb0
 132 498 l 1
 132 132 l 2
 132 110 151 94 171 94 c 2xb0
 366 94 l 2
 389 94 404 114 404 131 c 2
 404 498 l 1
 498 498 l 1
 498 1 l 1
 404 1 l 1
 404 32 l 5x70
 205 6 l 2
 180 2 159 -1 140 -1 c 0
 71 -1 40 30 40 106 c 2
 40 498 l 1xb0
EndSplineSet
Validated: 1
EndChar

StartChar: r
Encoding: 114 114 6
Width: 493
VWidth: -23
Flags: W
HStem: 1 21G<41 134> 404 96<208.062 407.134>
VStem: 41 93<1 400.334 464 498>
LayerCount: 2
Fore
SplineSet
134 498 m 1
 134 464 l 5
 292 494 l 2
 305 496 318 500 331 500 c 0
 396 500 455 455 469 404 c 1
 172 404 l 2
 150 404 134 385 134 366 c 2
 134 1 l 1
 41 1 l 1
 41 498 l 1
 134 498 l 1
469 404 m 1
EndSplineSet
Validated: 1
EndChar

StartChar: g
Encoding: 103 103 7
Width: 548
VWidth: -23
Flags: W
HStem: -240 92<155.092 397.809> -4 98<135.51 310.453> 30 64<349.621 402> 402 96<136.497 254.188>
VStem: 39 93<97.5744 396.21> 402 94<-142.861 30 94 402 449 498>
LayerCount: 2
Fore
SplineSet
132 365 m 2xbc
 132 132 l 2
 132 110 150 94 170 94 c 2xdc
 402 94 l 1
 402 402 l 1
 170 402 l 2
 140 402 132 372 132 365 c 2xbc
131 -148 m 1
 209 -148 288 -148 365 -148 c 0
 386 -146 402 -129 402 -110 c 2
 402 30 l 5xbc
 185 1 l 2
 166 -1 149 -4 134 -4 c 0
 64 -4 39 31 39 84 c 2
 39 371 l 2
 39 430 59 498 136 498 c 0
 150 498 165 494 182 490 c 2
 402 449 l 1
 402 498 l 1
 496 498 l 1
 496 -111 l 2
 496 -191 448 -240 370 -240 c 2
 196 -240 l 2
 150 -240 135 -185 131 -148 c 1
EndSplineSet
Validated: 1
EndChar

StartChar: o
Encoding: 111 111 8
Width: 580
VWidth: -23
Flags: W
HStem: -8 93<133.526 445.474> 405 93<133.526 445.861>
VStem: 35 93<90.6448 399.355> 451 93<90.6448 399.355>
LayerCount: 2
Fore
SplineSet
180 498 m 2
 399 498 l 2
 480 498 544 434 544 352 c 2
 544 138 l 2
 544 56 479 -8 399 -8 c 2
 180 -8 l 2
 100 -8 35 56 35 138 c 2
 35 352 l 2
 35 434 100 498 180 498 c 2
412 405 m 2
 166 405 l 2
 145 405 128 389 128 368 c 2
 128 122 l 2
 128 102 145 85 166 85 c 2
 412 85 l 2
 434 85 451 101 451 122 c 2
 451 368 l 2
 451 389 434 405 412 405 c 2
EndSplineSet
Validated: 1
EndChar

StartChar: d
Encoding: 100 100 9
Width: 560
VWidth: -23
Flags: W
HStem: -4 98<134.889 278.516> 404 98<134.889 268.75>
VStem: 38 92<98.91 399.09> 401 93<1 46 97.8023 131 131 399.914 444 696.635>
LayerCount: 2
Fore
SplineSet
494 742 m 1
 494 1 l 1
 401 1 l 1
 401 46 l 5
 200 0 l 2
 190 -2 180 -4 170 -4 c 0
 100 -4 38 56 38 106 c 2
 38 392 l 2
 38 442 100 502 170 502 c 0
 180 502 190 501 200 499 c 2
 400 444 l 1
 400 612 l 2
 400 691 440 732 494 742 c 1
401 366 m 2
 401 385 385 404 362 404 c 2
 168 404 l 2
 149 404 130 388 130 366 c 2
 130 132 l 2
 130 110 150 94 168 94 c 2
 362 94 l 2
 364 94 364 94 364 94 c 0
 385 94 400 114 401 131 c 2
 401 366 l 2
EndSplineSet
Validated: 1
EndChar

StartChar: s
Encoding: 115 115 10
Width: 533
VWidth: -23
Flags: W
HStem: 0 82<65.6863 399.149> 216 71<136.632 399.811> 414 82<137.251 464.615>
VStem: 38 92<292.289 408.487> 404 92<86.7306 120 120 211.114>
LayerCount: 2
Fore
SplineSet
38 404 m 2
 39 452 76 496 155 496 c 2
 410 496 l 2
 454 495 482 471 489 414 c 1
 168 414 l 2
 146 414 130 395 130 375 c 2
 130 325 l 6
 130 317 138 287 168 287 c 4
 169 287 l 6
 379 287 l 6
 444 287 496 245 496 184 c 2
 496 118 l 2
 496 38 452 0 365 0 c 2
 112 0 l 2
 78 0 52 20 48 82 c 1
 365 82 l 2
 374 82 404 90 404 120 c 2
 404 181 l 2
 404 202 385 216 365 216 c 2
 155 216 l 2
 88 216 38 264 38 325 c 2
 38 404 l 2
EndSplineSet
EndChar

StartChar: e
Encoding: 101 101 11
Width: 552
VWidth: -23
Flags: W
HStem: 0 92<139.185 425.185> 235 59<128 425> 421 85<160.281 412.531>
VStem: 34 94<121.416 156 156 235 294 410.346> 425 94<294 410.346>
LayerCount: 2
Fore
SplineSet
180 506 m 2
 372 506 l 2
 454 506 519 441 519 360 c 2
 519 235 l 1
 128 235 l 1
 128 145 l 2
 129 131 129 130 132 121 c 0
 140 105 159 92 178 92 c 2
 466 92 l 1
 458 30 414 0 336 0 c 2
 178 0 l 2
 90 0 34 76 34 156 c 2
 34 360 l 2
 34 441 99 506 180 506 c 2
375 421 m 1
 178 421 l 2
 172 421 166 420 160 418 c 0
 142 410 134 395 131 388 c 0
 130 385 130 381 128 370 c 1
 128 294 l 1
 425 294 l 1
 425 370 l 2
 425 375 425 381 421 388 c 0
 415 405 400 414 392 418 c 0
 390.279 418.86 374.494 421.201 373.941 421.201 c 0
 373.926 421.199 l 0
 373.926 421.187 374.254 421.124 375 421 c 1
EndSplineSet
EndChar

StartChar: f
Encoding: 102 102 12
Width: 327
VWidth: -23
Flags: W
HStem: 1 21G<51 144> 430 68<144 297.67> 658 73<151.914 359.625>
VStem: 51 93<1 430 498 651.699>
LayerCount: 2
Fore
SplineSet
189 731 m 2
 365 731 l 1
 365 710 l 2
 365 671 350 658 305 658 c 2
 189 658 l 2
 161 658 144 640 144 612 c 2
 144 498 l 1
 266 498 l 2
 285 498 300 482 300 464 c 0
 300 445 285 430 266 430 c 2
 144 430 l 1
 144 1 l 1
 51 1 l 1
 51 614 l 2
 51 615 l 0
 51 685 105 731 189 731 c 2
EndSplineSet
Validated: 1
EndChar

StartChar: t
Encoding: 116 116 13
Width: 416
VWidth: -23
Flags: W
HStem: 1 21G<138 231> 404 94<28.752 138 231 379.668>
VStem: 138 93<1 404 498 723.653>
LayerCount: 2
Fore
SplineSet
185 731 m 0
 210 731 231 710 231 685 c 2
 231 498 l 1
 340 498 l 2
 366 498 388 476 388 450 c 2
 388 404 l 1
 231 404 l 1
 231 1 l 1
 138 1 l 1
 138 404 l 1
 68 404 l 2
 41 404 21 425 21 450 c 0
 21 476 41 498 68 498 c 2
 138 498 l 1
 138 685 l 2
 138 710 159 731 185 731 c 0
EndSplineSet
Validated: 1
EndChar

StartChar: i
Encoding: 105 105 14
Width: 211
VWidth: -23
Flags: W
HStem: 1 21G<52 145> 626 94<59.7629 137.932>
VStem: 52 94<1 489.668 633.219 711.932>
LayerCount: 2
Fore
SplineSet
99 498 m 0
 125 498 145 476 145 450 c 2
 145 1 l 1
 52 1 l 1
 52 450 l 2
 52 476 74 498 99 498 c 0
146 672 m 0
 146 645 125 626 98 626 c 0
 70 626 52 649 52 672 c 0
 52 700 74 720 98 720 c 0
 124 720 146 699 146 672 c 0
EndSplineSet
Validated: 1
EndChar

StartChar: v
Encoding: 118 118 15
Width: 510
VWidth: -23
Flags: W
HStem: 1 21G<210.748 290.299>
LayerCount: 2
Fore
SplineSet
65 495 m 2
 82 494 99 484 106 468 c 2
 211 244 l 2
 220 220 235 178 236 171 c 1
 265 171 l 1
 266 184 285 226 292 245 c 2
 395 468 l 2
 402 485 420 495 438 495 c 0
 444 495 450 494 456 490 c 0
 474 482 484 465 484 448 c 0
 484 441 482 435 480 429 c 2
 281 1 l 1
 220 1 l 1
 22 429 l 2
 19 435 18 441 18 448 c 0
 18 465 28 482 45 490 c 0
 51 494 58 495 65 495 c 2
EndSplineSet
Validated: 1
EndChar

StartChar: q
Encoding: 113 113 17
Width: 561
VWidth: -23
Flags: W
HStem: -4 98<135.51 310.453> 30 64<349.621 402> 402 96<136.497 254.188>
VStem: 39 93<97.5744 396.21> 402 94<-240 30 94 402 449 498>
LayerCount: 2
Fore
SplineSet
402 -240 m 1xb8
 402 30 l 1x78
 185 1 l 2
 166 -1 149 -4 134 -4 c 0
 64 -4 39 31 39 84 c 2
 39 371 l 2
 39 430 59 498 136 498 c 0
 150 498 165 494 182 490 c 2
 402 449 l 5
 402 498 l 1
 496 498 l 1
 496 -240 l 1
 402 -240 l 1xb8
132 365 m 2
 132 132 l 2
 132 110 150 94 170 94 c 2xb8
 402 94 l 1
 402 402 l 1
 170 402 l 2
 140 402 132 372 132 365 c 2
EndSplineSet
Validated: 1
EndChar

StartChar: p
Encoding: 112 112 18
Width: 536
VWidth: -23
Flags: W
HStem: -4 98<225.969 401.627> 30 64<134 186.621> 402 96<282.484 401.731>
VStem: 41 93<-240 30 94 402 449 498> 405 93<97.5744 132 132 396.21>
LayerCount: 2
Fore
SplineSet
134 -240 m 1x78
 41 -240 l 1
 41 498 l 1
 134 498 l 1
 134 449 l 1
 355 490 l 2
 372 494 388 498 401 498 c 0
 479 498 498 430 498 371 c 2
 498 84 l 2
 498 31 474 -4 404 -4 c 0xb8
 389 -4 371 -1 352 1 c 2
 134 30 l 5
 134 -240 l 1x78
366 94 m 2
 388 94 405 110 405 132 c 2
 405 365 l 2
 405 395 375 402 368 402 c 2
 134 402 l 1
 134 94 l 1x78
 366 94 l 2
EndSplineSet
Validated: 1
EndChar

StartChar: l
Encoding: 108 108 19
Width: 217
VWidth: -23
Flags: W
HStem: 1 28<145 184>
VStem: 52 93<29 723.653>
LayerCount: 2
Fore
SplineSet
99 731 m 0
 125 731 145 710 145 685 c 2
 145 29 l 1
 170 29 l 2
 178 29 184 22 184 15 c 2
 184 1 l 1
 52 1 l 1
 52 685 l 2
 52 710 72 731 99 731 c 0
EndSplineSet
Validated: 1
EndChar

StartChar: k
Encoding: 107 107 20
Width: 563
VWidth: -23
Flags: W
HStem: 1 21G<51 144 462 474>
VStem: 51 93<1 250 356 693.216>
LayerCount: 2
Fore
SplineSet
144 741 m 1
 144 356 l 1
 434 524 l 2
 439 526 448 530 456 530 c 0
 472 530 488 521 496 506 c 0
 500 500 502 492 502 482 c 0
 502 466 495 451 480 442 c 2
 286 331 l 1
 534 34 l 1
 498 5 l 2
 489 -2 479 -6 469 -6 c 0
 455 -6 441 0 432 11 c 2
 206 286 l 1
 144 250 l 1
 144 1 l 1
 51 1 l 1
 51 612 l 2
 51 689 94 731 144 741 c 1
EndSplineSet
Validated: 1
EndChar

StartChar: j
Encoding: 106 106 21
Width: 236
VWidth: -23
Flags: W
HStem: 626 94<84.0419 163.265>
VStem: 76 95<-118.922 489.668 633.436 711.56>
LayerCount: 2
Fore
SplineSet
171 672 m 0
 171 645 149 626 122 626 c 0
 95 626 76 649 76 672 c 0
 76 700 99 720 122 720 c 0
 149 720 171 699 171 672 c 0
122 498 m 0
 149 498 170 476 170 450 c 2
 170 -62 l 2
 170 -96 156 -111 149 -119 c 2
 26 -231 l 1
 25 -232 l 2
 11 -249 -1 -250 -8 -250 c 0
 -10 -250 -14 -250 -14 -250 c 2
 -22 -248 -32 -242 -32 -232 c 0
 -32 -230 -32 -226 -29 -221 c 1
 52 -136 l 1
 54 -134 l 2
 69 -112 76 -100 76 -69 c 0
 76 -66 76 -64 76 -62 c 2
 76 -52 l 1
 76 450 l 2
 76 476 98 498 122 498 c 0
EndSplineSet
EndChar

StartChar: comma
Encoding: 44 44 22
Width: 313
VWidth: 0
Flags: W
HStem: -146 265
VStem: 160 52<-53.9844 9>
LayerCount: 2
Fore
SplineSet
159 119 m 0
 189 119 212 95 212 65 c 2
 212 10 l 2
 212 -11 206 -31 199 -42 c 2
 131 -138 l 2
 129 -140 129 -140 126 -142 c 0
 124 -145 119 -146 114 -146 c 0
 106 -146 102 -142 102 -141 c 0
 102 -140 104 -138 105 -136 c 2
 106 -135 l 1
 150 -50 l 2
 154 -44 160 -32 160 -18 c 0
 160 -15 160 -10 160 -8 c 2
 158 9 l 1
 142 14 l 2
 121 21 105 41 105 65 c 0
 105 95 130 119 159 119 c 0
EndSplineSet
Validated: 1
EndChar

StartChar: y
Encoding: 121 121 23
Width: 512
VWidth: -23
Flags: W
LayerCount: 2
Fore
SplineSet
66 496 m 0
 82 496 100 486 108 470 c 2
 252 168 l 1
 398 470 l 2
 405 486 421 496 439 496 c 0
 445 496 452 495 459 491 c 0
 476 484 485 468 485 450 c 0
 485 444 484 436 481 430 c 2
 170 -221 l 2
 161 -239 145 -248 128 -248 c 0
 121 -248 114 -246 108 -244 c 2
 65 -221 l 1
 211 82 l 1
 192 94 l 2
 185 99 179 105 175 114 c 2
 24 430 l 2
 20 436 19 444 19 450 c 0
 19 468 29 484 45 491 c 0
 52 495 59 496 65 496 c 0
 66 496 66 496 66 496 c 0
EndSplineSet
Validated: 1
EndChar

StartChar: c
Encoding: 99 99 24
Width: 498
VWidth: -23
Flags: W
HStem: 1 91<135.766 427.838> 412 93<135.766 427.838>
VStem: 36 93<97.0849 145 145 408.022>
LayerCount: 2
Fore
SplineSet
186 505 m 6
 375 505 l 6
 434 505 454 448 461 412 c 5
 168 412 l 6
 146 412 129 396 129 375 c 6
 129 130 l 6
 129 109 146 92 168 92 c 6
 461 92 l 5
 454 58 434 1 375 1 c 6
 186 1 l 6
 88 1 36 61 36 145 c 6
 36 360 l 6
 36 444 88 505 186 505 c 6
EndSplineSet
Validated: 1
EndChar

StartChar: w
Encoding: 119 119 25
Width: 818
VWidth: -23
Flags: W
HStem: 1 21G<210.748 290.288 518.786 598.299>
LayerCount: 2
Fore
SplineSet
65 495 m 2
 82 494 99 484 106 468 c 2
 211 244 l 2
 220 220 235 158 236 151 c 1
 265 151 l 1
 266 164 285 226 292 245 c 2
 334 336 l 2
 339 344 346 354 364 354 c 2
 448 354 l 2
 451 354 451 354 454 354 c 0
 465 350 472 340 476 332 c 2
 519 244 l 2
 528 220 542 158 544 151 c 1
 574 151 l 1
 575 164 592 226 600 245 c 2
 702 468 l 2
 711 485 728 495 745 495 c 0
 751 495 758 494 765 490 c 0
 781 482 791 465 791 448 c 0
 791 441 790 435 788 429 c 2
 589 1 l 1
 528 1 l 1
 405 268 l 1
 281 1 l 1
 220 1 l 1
 22 429 l 2
 19 435 18 441 18 448 c 0
 18 465 28 482 45 490 c 0
 51 494 58 495 65 495 c 2
EndSplineSet
Validated: 1
EndChar

StartChar: z
Encoding: 122 122 26
Width: 531
VWidth: -23
Flags: W
HStem: -5 93<159 467.431> 404 94<86.1941 369>
LayerCount: 2
Fore
SplineSet
161 498 m 2
 465 498 l 2
 470 496 470 496 472 496 c 0
 478 495 482 491 486 488 c 0
 490 481 491 475 491 470 c 2
 491 405 l 2
 491 404 l 0
 491 402 491 400 488 395 c 0
 481 388 465 374 455 362 c 2
 159 88 l 1
 491 88 l 1
 489 45 476 -5 412 -5 c 2
 64.001 -5 l 6
 64.001 -5 66.9091 -5.09091 62.001 -5 c 4
 58.6174 -4.93733 45 5 38 15 c 0
 35 19 35 21 35 21 c 2
 35 86 l 2
 35 88 35 88 35 88 c 0
 35 91 35 92 38 96 c 0
 42 104 46 108 70 130 c 2
 369 404 l 1
 56 404 l 1
 61 465 88 498 161 498 c 2
EndSplineSet
EndChar

StartChar: x
Encoding: 120 120 27
Width: 546
VWidth: -23
Flags: W
HStem: -5 21G<80 87 449 455.5>
LayerCount: 2
Fore
SplineSet
85 509 m 0
 89 509 106 509 121 492 c 2
 268 322 l 1
 415 492 l 2
 429 509 448 509 450 509 c 0
 461 509 472 505 481 498 c 0
 498 484 498 465 498 462 c 0
 498 451 494 440 486 431 c 2
 330 251 l 1
 514 38 l 1
 480 6 l 2
 471 -1 461 -5 450 -5 c 0
 448 -5 429 -5 415 11 c 2
 268 181 l 1
 121 11 l 2
 108 -5 89 -5 85 -5 c 0
 75 -5 64 -1 55 6 c 0
 39 20 39 38 39 41 c 0
 39 52 42 62 50 71 c 2
 206 251 l 1
 50 431 l 2
 42 440 39 451 39 462 c 0
 39 465 39 484 55 498 c 0
 64 505 74 509 85 509 c 0
EndSplineSet
Validated: 1
EndChar

StartChar: exclam
Encoding: 33 33 28
Width: 351
VWidth: 0
Flags: W
HStem: 24 95<136.394 217.513>
VStem: 129 96<32.0156 110.932 246 746.341>
LayerCount: 2
Fore
SplineSet
225 71 m 0
 225 45 204 24 176 24 c 0
 150 24 129 45 129 71 c 0
 129 98 150 119 176 119 c 0
 204 119 225 98 225 71 c 0
176 755 m 0
 202 755 224 734 224 708 c 2
 224 246 l 1
 130 246 l 1
 130 708 l 2
 130 734 151 755 176 755 c 0
EndSplineSet
Validated: 1
EndChar

StartChar: question
Encoding: 63 63 29
Width: 593
VWidth: 0
Flags: W
HStem: 25 94<187.347 266.312> 352 89<273.172 408.588> 649 46<79 143.5> 649 109<222.25 409.362>
VStem: 180 94<32.484 110.932 246 349.458> 414 91<447.579 642.143>
LayerCount: 2
Fore
SplineSet
355 758 m 0xdc
 454 758 505 680 505 596 c 2
 505 495 l 2
 505 412 452 352 355 352 c 2
 272 352 l 1
 272 246 l 1
 180 246 l 1
 180 328 l 2
 180 396 245 441 299 441 c 2
 372 441 l 2
 398 441 414 459 414 480 c 2
 414 612 l 2
 414 636 391 649 376 649 c 2xdc
 79 649 l 1
 79 695 l 1xec
 148 721 300 758 355 758 c 0xdc
274 71 m 0
 274 44 252 25 226 25 c 0
 201 25 180 42 180 71 c 0
 180 99 200 119 226 119 c 0
 252 119 274 98 274 71 c 0
EndSplineSet
Validated: 1
EndChar

StartChar: period
Encoding: 46 46 30
Width: 298
VWidth: 0
Flags: W
HStem: 25 94<111.763 191.017>
VStem: 104 95<33.0419 110.281>
LayerCount: 2
Fore
SplineSet
199 71 m 0
 199 44 176 25 150 25 c 0
 122 25 104 48 104 71 c 0
 104 99 126 119 150 119 c 0
 176 119 199 98 199 71 c 0
EndSplineSet
Validated: 1
EndChar

StartChar: colon
Encoding: 58 58 31
Width: 300
VWidth: 0
Flags: W
HStem: 24 95<109.983 191.56> 426 96<111.336 190.281>
VStem: 102 97<32.6594 110.281 435.336 513.341>
LayerCount: 2
Fore
SplineSet
199 475 m 0
 199 449 178 426 151 426 c 0
 125 426 102 449 102 475 c 0
 102 501 125 522 151 522 c 0
 178 522 199 501 199 475 c 0
199 71 m 0
 199 45 178 24 151 24 c 0
 125 24 102 45 102 71 c 0
 102 98 125 119 151 119 c 0
 178 119 199 98 199 71 c 0
EndSplineSet
Validated: 1
EndChar

StartChar: semicolon
Encoding: 59 59 32
Width: 313
VWidth: 0
Flags: W
HStem: 426 96<113.659 192.221>
VStem: 105 96<434.648 513.984> 160 52<-53.9844 9>
LayerCount: 2
Fore
SplineSet
159 119 m 0xc0
 189 119 212 95 212 65 c 2
 212 10 l 2xa0
 212 -11 206 -31 199 -42 c 2
 131 -138 l 2
 129 -140 129 -140 126 -142 c 0
 124 -145 119 -146 114 -146 c 0
 106 -146 102 -142 102 -141 c 0
 102 -140 104 -138 105 -136 c 2xc0
 106 -135 l 1
 150 -50 l 2
 154 -44 160 -32 160 -18 c 0
 160 -15 160 -10 160 -8 c 2xa0
 158 9 l 1
 142 14 l 2
 121 21 105 41 105 65 c 0
 105 95 130 119 159 119 c 0xc0
201 475 m 0xc0
 201 449 180 426 152 426 c 0
 126 426 105 449 105 475 c 0
 105 501 126 522 152 522 c 0
 180 522 201 501 201 475 c 0xc0
EndSplineSet
Validated: 1
EndChar

StartChar: quotesingle
Encoding: 39 39 33
Width: 300
VWidth: 0
Flags: W
HStem: 466 293
VStem: 102 97<640.25 750.62>
LayerCount: 2
Fore
SplineSet
121 515 m 1
 102 712 l 2
 99.6174 736.704 125 759 151 759 c 0
 178 759 199 739 199 712 c 2
 175 466 l 1
 151 468 l 2
 136 468 125 478 124 492 c 2
 121 515 l 1
EndSplineSet
EndChar

StartChar: M
Encoding: 77 77 35
Width: 750
VWidth: -23
Flags: W
HStem: 1 21G<52 145 592 685>
VStem: 52 93<1 549> 592 93<1 549>
LayerCount: 2
Fore
SplineSet
99 731 m 0
 125 731 131 715 151 690 c 2
 369 391 l 1
 586 690 l 2
 608 715 612 731 639 731 c 0
 665 731 685 710 685 685 c 2
 685 1 l 1
 592 1 l 1
 592 549 l 1
 370 265 l 2
 369 264 370 264 369 264 c 0
 369 264 368 264 368 265 c 2
 145 549 l 1
 145 1 l 1
 52 1 l 1
 52 685 l 2
 52 710 72 731 99 731 c 0
EndSplineSet
Validated: 1
EndChar

StartChar: N
Encoding: 78 78 36
Width: 692
VWidth: -23
Flags: W
HStem: 1 21G<52 145 568 593.5>
VStem: 52 93<1 550> 534 94<181 726.614>
LayerCount: 2
Fore
SplineSet
99 731 m 0
 125 731 131 715 151 690 c 2
 534 181 l 1
 534 699 l 2
 535 716 551 731 579 731 c 2
 628 731 l 1
 628 48 l 2
 628 21 606 1 581 1 c 0
 555 1 549 18 529 42 c 2
 145 550 l 1
 145 1 l 1
 52 1 l 1
 52 685 l 2
 52 710 72 731 99 731 c 0
EndSplineSet
Validated: 1
EndChar

StartChar: H
Encoding: 72 72 37
Width: 653
VWidth: -23
Flags: W
HStem: 1 21G<52 145 495 588> 311 93<145 495>
VStem: 52 93<1 311 404 723.653> 495 93<1 311 404 724.246>
LayerCount: 2
Fore
SplineSet
99 731 m 0
 125 731 145 710 145 685 c 2
 145 404 l 1
 495 404 l 1
 495 685 l 2
 495 710 515 731 541 731 c 2
 588 731 l 1
 588 1 l 1
 495 1 l 1
 495 311 l 1
 145 311 l 1
 145 1 l 1
 52 1 l 1
 52 685 l 2
 52 710 72 731 99 731 c 0
EndSplineSet
Validated: 1
EndChar

StartChar: O
Encoding: 79 79 38
Width: 621
VWidth: -23
Flags: W
HStem: 1 93<145.032 458.075> 638 93<145.032 458.075>
VStem: 46 94<99.5257 631.968> 464 94<99.5257 631.968>
LayerCount: 2
Fore
SplineSet
192 731 m 2
 411 731 l 2
 492 731 558 666 558 585 c 2
 558 146 l 2
 558 66 492 1 411 1 c 2
 192 1 l 2
 111 1 46 66 46 146 c 2
 46 585 l 2
 46 666 111 731 192 731 c 2
426 638 m 2
 178 638 l 2
 156 638 140 621 140 600 c 2
 140 132 l 2
 140 111 156 94 178 94 c 2
 426 94 l 2
 448 94 464 111 464 132 c 2
 464 600 l 2
 464 621 448 638 426 638 c 2
EndSplineSet
Validated: 1
EndChar

StartChar: P
Encoding: 80 80 39
Width: 548
VWidth: -23
Flags: W
HStem: 1 21G<52 145> 310 94<145 384.757> 636 95<145 386.225>
VStem: 52 93<1 310 404 636> 390 92<408.041 441 441 628.899>
LayerCount: 2
Fore
SplineSet
145 1 m 1
 52 1 l 1
 52 731 l 1
 352 731 l 2
 429 731 482 678 482 606 c 2
 482 429 l 2
 482 351 412 310 359 310 c 2
 145 310 l 1
 145 1 l 1
351 404 m 2
 372 404 390 420 390 441 c 2
 390 599 l 2
 390 629 360 636 352 636 c 2
 145 636 l 1
 145 404 l 1
 351 404 l 2
EndSplineSet
Validated: 1
EndChar

StartChar: C
Encoding: 67 67 40
Width: 567
VWidth: 0
Flags: W
HStem: 2 93<145.032 455.076> 639 93<145.032 444.464>
VStem: 46 94<100.645 148 148 633.355>
LayerCount: 2
Fore
SplineSet
192 732 m 2
 399 732 l 2
 441 731 470 686 476 639 c 1
 178 639 l 2
 156 639 140 622 140 601 c 2
 140 132 l 2
 140 112 156 95 178 95 c 2
 489 95 l 1
 480 48 451 2 411 2 c 2
 192 2 l 2
 111 2 46 66 46 148 c 2
 46 586 l 2
 46 668 111 732 192 732 c 2
476 639 m 1
EndSplineSet
EndChar

StartChar: Q
Encoding: 81 81 41
Width: 657
VWidth: -23
Flags: W
HStem: 1 93<144.526 391> 638 93<144.526 457.474>
VStem: 46 93<99.5257 146 146 631.968> 464 92<151 631.968>
LayerCount: 2
Fore
SplineSet
425 638 m 2
 178 638 l 2
 156 638 139 621 139 600 c 2
 139 132 l 2
 139 111 156 94 178 94 c 2
 391 94 l 1
 396 112 l 2
 400 126 412 148 440 149 c 2
 464 151 l 1
 464 600 l 2
 464 621 446 638 425 638 c 2
481 19 m 1
 469 12 l 2
 451 5 431 1 411 1 c 2
 191 1 l 2
 111 1 46 66 46 146 c 2
 46 585 l 2
 46 666 111 731 191 731 c 2
 411 731 l 2
 491 731 556 666 556 585 c 2
 556 146 l 2
 556 126 552 108 545 90 c 2
 539 74 l 1
 648 -34 l 1
 632 -52 l 2
 626 -59 619 -62 611 -62 c 0
 606 -62 600 -61 596 -58 c 2
 481 19 l 1
EndSplineSet
EndChar

StartChar: R
Encoding: 82 82 42
Width: 520
VWidth: -23
Flags: W
HStem: 1 21G<52 145> 310 94<145 308> 636 95<145 384.645>
VStem: 52 93<1 310 404 636> 390 94<408.989 441 441 629.159>
LayerCount: 2
Fore
SplineSet
52 731 m 1
 352 731 l 2
 434 731 484 679 484 606 c 2
 484 429 l 2
 484 405 476 359 424 329 c 2
 405 318 l 1
 529 18 l 1
 488 -4 l 2
 481 -6 476 -8 470 -8 c 0
 452 -8 435 4 428 21 c 2
 308 310 l 1
 145 310 l 1
 145 1 l 1
 52 1 l 1
 52 731 l 1
352 636 m 2
 145 636 l 1
 145 404 l 1
 352 404 l 2
 372 404 390 420 390 441 c 2
 390 599 l 2
 390 629 360 636 352 636 c 2
EndSplineSet
Validated: 1
EndChar

StartChar: T
Encoding: 84 84 43
Width: 558
VWidth: -23
Flags: W
HStem: 1 21G<239 332> 638 93<25.3939 239 332 544.901>
VStem: 239 93<1 638>
LayerCount: 2
Fore
SplineSet
65 731 m 2
 506 731 l 2
 532 731 552 710 552 685 c 2
 552 638 l 1
 332 638 l 1
 332 1 l 1
 239 1 l 1
 239 638 l 1
 18 638 l 1
 18 685 l 2
 18 710 39 731 65 731 c 2
EndSplineSet
Validated: 1
EndChar

StartChar: V
Encoding: 86 86 44
Width: 641
VWidth: -23
Flags: W
HStem: 1 21G<222.373 346.601>
LayerCount: 2
Fore
SplineSet
58 738 m 0
 78 738 95 725 102 706 c 2
 285 154 l 1
 469 706 l 2
 475 725 492 738 512 738 c 0
 518 738 522 736 528 735 c 2
 534 732 l 1
 576 716 l 1
 340 1 l 1
 229 1 l 1
 6 674 l 2
 5 679 4 684 4 689 c 0
 4 709 16 726 36 732 c 2
 44 735 l 2
 48 736 52 738 58 738 c 0
EndSplineSet
Validated: 1
EndChar

StartChar: A
Encoding: 65 65 45
Width: 602
VWidth: 0
Flags: W
HStem: 0 21G<58.5 83 515 526> 174 94<195 404>
LayerCount: 2
Fore
SplineSet
294 736 m 6
 355 736 l 5
 578 65 l 5
 578 60 579 55 579 50 c 4
 579 21 564 1 526 0 c 4
 525 0 524 -1 524 -1 c 5
 506 -1 489 11 482 31 c 6
 435 174 l 5
 164 174 l 5
 116 31 l 6
 110 11 92 0 74 0 c 4
 72 0 l 4
 45 0 20 19 20 49 c 4
 20 54 20 59 21 64 c 6
 224 674 l 6
 241 721 266 736 294 736 c 6
404 268 m 5
 300 582 l 5
 195 268 l 5
 404 268 l 5
EndSplineSet
Validated: 1
EndChar

StartChar: G
Encoding: 71 71 46
Width: 533
VWidth: -23
Flags: W
HStem: 1 93<144.526 398> 311 44<312.012 398> 638 93<144.526 443.887>
VStem: 46 93<99.5257 146 146 631.968> 398 92<94 311>
LayerCount: 2
Fore
SplineSet
191 731 m 2
 398 731 l 2
 441 730 469 685 475 638 c 1
 178 638 l 2
 156 638 139 621 139 600 c 2
 139 132 l 2
 139 111 156 94 178 94 c 2
 398 94 l 1
 398 311 l 1
 332 311 l 2
 328 311 312 311 312 334 c 2
 312 355 l 1
 490 355 l 1
 490 48 l 2
 490 25 478 1 438 1 c 0
 412 1 l 1
 191 1 l 2
 111 1 46 66 46 146 c 2
 46 585 l 2
 46 666 111 731 191 731 c 2
412 1 m 1
 412 -24 l 1
 412 -24 412 -21 415 -11 c 1
 438 1 l 1
 412 1 l 1
475 638 m 1
 476 631 478 624 478 616 c 0
 478 615 478 615 478 614 c 1
 502 638 l 1
 475 638 l 1
EndSplineSet
Validated: 5
EndChar

StartChar: U
Encoding: 85 85 47
Width: 588
VWidth: -23
Flags: W
HStem: 1 93<147.491 426.426>
VStem: 50 94<99.9799 729.97> 430 94<99.9799 725.146>
LayerCount: 2
Fore
SplineSet
98 736 m 0
 120 736 144 724 144 691 c 2
 144 132 l 2
 144 110 162 94 181 94 c 2
 392 94 l 2
 414 94 430 112 430 132 c 2
 430 685 l 2
 430 718 454 731 476 731 c 0
 478 731 l 2
 524 731 l 1
 524 106 l 2
 524 41 482 1 431 1 c 2
 142 1 l 2
 91 1 50 41 50 106 c 2
 50 691 l 2
 51 729 81 736 98 736 c 0
EndSplineSet
Validated: 1
EndChar

StartChar: S
Encoding: 83 83 48
Width: 547
VWidth: -23
Flags: W
HStem: 0 82<75.0125 409.892> 330 94<146.863 409.728> 649 82<144.322 445.679>
VStem: 48 92<430.256 643.399> 414 94<86.7306 120 120 325.972>
LayerCount: 2
Fore
SplineSet
48 639 m 2
 48 686 88 731 165 731 c 2
 390 731 l 2
 434 730 462 708 468 649 c 1
 179 649 l 2
 156 649 140 631 140 610 c 2
 140 461 l 2
 140 454 148 424 178 424 c 0
 179 424 179 424 179 424 c 2
 389 424 l 2
 466 424 508 364 508 299 c 2
 508 118 l 2
 508 38 462 0 376 0 c 2
 122 0 l 2
 86 0 62 20 58 82 c 1
 376 82 l 2
 384 82 414 90 414 120 c 2
 414 294 l 2
 414 315 395 330 376 330 c 2
 165 330 l 2
 99 330 48 376 48 439 c 2
 48 639 l 2
EndSplineSet
Validated: 1
EndChar

StartChar: I
Encoding: 73 73 49
Width: 210
VWidth: -23
Flags: W
HStem: 1 21G<52 145>
VStem: 52 93<1 723.653>
LayerCount: 2
Fore
SplineSet
99 731 m 2
 145 731 l 1
 145 1 l 1
 52 1 l 1
 52 685 l 2
 52 710 72 731 99 731 c 2
EndSplineSet
Validated: 1
EndChar

StartChar: J
Encoding: 74 74 50
Width: 235
VWidth: -23
Flags: W
VStem: 76 94<-118.998 -62 -38 728.653>
LayerCount: 2
Fore
SplineSet
122 736 m 0
 149 736 170 715 170 690 c 2
 170 -62 l 2
 170 -96 156 -111 149 -119 c 2
 26 -231 l 1
 25 -232 l 2
 11 -249 -1 -250 -8 -250 c 0
 -10 -250 -14 -250 -14 -250 c 2
 -22 -248 -32 -242 -32 -232 c 0
 -32 -230 -32 -226 -29 -221 c 1
 52 -136 l 1
 54 -134 l 2
 69 -112 76 -100 76 -69 c 0
 76 -66 76 -64 76 -62 c 2
 76 -52 l 1
 76 690 l 2
 76 715 98 736 122 736 c 0
76 -52 m 1
 76 -38 l 1
 51 -38 l 1
 76 -62 l 1
 76 -52 l 1
EndSplineSet
Validated: 5
EndChar

StartChar: L
Encoding: 76 76 51
Width: 547
VWidth: -23
Flags: W
HStem: 1 93<145 514.901>
VStem: 52 93<94 723.653>
LayerCount: 2
Fore
SplineSet
99 731 m 2
 145 731 l 1
 145 94 l 1
 476 94 l 2
 502 94 522 74 522 48 c 0
 522 21 502 1 476 1 c 2
 52 1 l 1
 52 685 l 2
 52 710 72 731 99 731 c 2
EndSplineSet
Validated: 1
EndChar

StartChar: B
Encoding: 66 66 52
Width: 551
VWidth: 0
Flags: W
HStem: 2 93<145 411.556> 341 69<145 386.341> 654 77<145 386.203>
VStem: 52 93<95 341 410 654> 390 94<430 448 448 648.399> 416 94<99.0661 132 132 320.401>
LayerCount: 2
Fore
SplineSet
52 731 m 1xf4
 352 731 l 2
 439 731 484 681 484 606 c 2
 484 430 l 2xf8
 482 425 482 425 482 425 c 0
 476 401 484 428 482 422 c 0
 476 406 461 392 444 392 c 1
 419 368 l 1
 444 342 l 1
 470 342 510 311 510 280 c 2
 510 120 l 2
 510 42 440 2 385 2 c 2
 52 2 l 1
 52 731 l 1xf4
352 654 m 2
 145 654 l 1
 145 410 l 1
 352 410 l 2
 372 410 390 425 390 448 c 2
 390 615 l 2
 390 646 360 654 352 654 c 2
379 341 m 2
 145 341 l 1
 145 95 l 1
 379 95 l 2
 399 95 416 111 416 132 c 2
 416 304 l 2xf4
 416 334 386 341 379 341 c 2
EndSplineSet
Validated: 37
EndChar

StartChar: D
Encoding: 68 68 53
Width: 575
VWidth: 0
Flags: W
HStem: 0 92<145 411.222> 636 94<145 412.248>
VStem: 52 93<92 636> 416 94<97.2971 131 131 631.503>
LayerCount: 2
Fore
SplineSet
385 0 m 6
 52 0 l 5
 52 730 l 5
 375 730 l 6
 451 730 510 669 510 605 c 6
 510 118 l 6
 510 41 439 0 385 0 c 6
379 92 m 6
 399 92 416 109 416 131 c 6
 416 598 l 6
 416 628 386 636 379 636 c 6
 145 636 l 5
 145 92 l 5
 379 92 l 6
EndSplineSet
Validated: 1
EndChar

StartChar: W
Encoding: 87 87 54
Width: 867
VWidth: -23
Flags: W
HStem: 1 21G<169.346 324.645 480.839 639.592>
LayerCount: 2
Fore
SplineSet
60 736 m 0
 61 736 l 0
 82 736 101 722 106 700 c 2
 250 79 l 1
 344 482 l 2
 345 486 346 489 345 486 c 1
 349 495 352 498 355 498 c 2
 454 498 l 2
 458 498 461 491 464 485 c 2
 558 80 l 1
 702 700 l 2
 708 722 726 736 748 736 c 0
 751 736 754 736 758 735 c 2
 801 724 l 1
 635 1 l 1
 486 1 l 1
 454 125 l 2
 444 178 436 220 429 332 c 0
 428 346 418 355 404 355 c 0
 390 355 380 346 379 332 c 0
 370 218 365 176 354 125 c 2
 319 1 l 1
 174 1 l 1
 16 680 l 2
 15 682 15 686 15 690 c 0
 15 711 29 730 50 735 c 0
 54 736 56 736 60 736 c 0
EndSplineSet
Validated: 5
EndChar

StartChar: Y
Encoding: 89 89 55
Width: 645
VWidth: -23
Flags: W
HStem: 1 21G<222 316>
VStem: 222 94<1 321>
LayerCount: 2
Fore
SplineSet
19 742 m 0
 20 742 l 0
 35 742 49 736 58 722 c 2
 270 418 l 1
 481 722 l 2
 490 736 505 742 520 742 c 0
 529 742 538 741 546 735 c 2
 580 710 l 1
 316 321 l 1
 316 1 l 1
 222 1 l 1
 222 322 l 1
 -19 670 l 2
 -24 679 -28 688 -28 696 c 0
 -28 711 -20 726 -8 735 c 0
 1 740 10 742 19 742 c 0
EndSplineSet
Validated: 1
EndChar

StartChar: X
Encoding: 88 88 58
Width: 658
VWidth: -23
Flags: W
LayerCount: 2
Fore
SplineSet
71 739 m 0
 88 739 101 731 110 719 c 2
 309 429 l 1
 508 719 l 2
 516 731 531 739 546 739 c 0
 555 739 564 736 572 730 c 0
 585 722 592 708 592 692 c 0
 592 684 590 674 585 666 c 2
 365 346 l 1
 588 20 l 1
 550 -6 l 2
 542 -11 534 -14 524 -14 c 0
 509 -14 494 -8 485 6 c 2
 309 262 l 1
 132 6 l 2
 124 -8 110 -15 95 -15 c 0
 86 -15 78 -12 69 -8 c 2
 68 -5 l 2
 55 4 48 18 48 31 c 0
 48 41 50 50 56 59 c 2
 252 346 l 1
 34 666 l 2
 28 674 25 684 25 692 c 0
 25 708 32 722 45 730 c 0
 54 736 62 739 71 739 c 0
EndSplineSet
Validated: 1
EndChar

StartChar: E
Encoding: 69 69 59
Width: 565
VWidth: 0
Flags: W
HStem: 2 93<145 514.775> 311 94<145 422> 639 93<145 491.854>
VStem: 52 93<95 311 405 639>
LayerCount: 2
Fore
SplineSet
52 732 m 5
 499 732 l 5
 499 685 l 6
 499 660 479 639 452 639 c 6
 145 639 l 5
 145 405 l 5
 422 405 l 6
 452 401 470 382 470 358 c 4
 470 322 434 312 422 311 c 5
 145 311 l 5
 145 95 l 5
 475 95 l 6
 504 92 522 74 522 49 c 4
 522 24 504 4 475 2 c 6
 52 2 l 5
 52 732 l 5
EndSplineSet
Validated: 1
EndChar

StartChar: F
Encoding: 70 70 60
Width: 565
VWidth: -23
Flags: W
HStem: 1 21G<52 145> 310 94<145 403.901> 638 93<145 491.854>
VStem: 52 93<1 310 404 638>
LayerCount: 2
Fore
SplineSet
52 731 m 1
 499 731 l 1
 499 685 l 2
 499 659 479 638 452 638 c 2
 145 638 l 1
 145 404 l 1
 365 404 l 2
 391 404 411 382 411 358 c 0
 411 331 391 310 365 310 c 2
 145 310 l 1
 145 1 l 1
 52 1 l 1
 52 731 l 1
EndSplineSet
Validated: 1
EndChar

StartChar: Z
Encoding: 90 90 61
Width: 577
VWidth: -23
Flags: W
HStem: 1 93<132 500.776> 638 93<67.2971 398>
LayerCount: 2
Fore
SplineSet
142 731 m 2
 485 731 l 2
 490 730 490 731 494 730 c 0
 498 729 502 726 506 721 c 0
 510 716 512 709 512 704 c 2
 512 652 l 2
 512 638 508 629 498 614 c 2
 132 94 l 1
 524 94 l 1
 521 51 510 1 446 1 c 2
 66 1 l 2
 66 1 66 1 65 1 c 0
 59 4 46 11 40 21 c 0
 38 25 36 28 36 28 c 2
 36 94 l 2
 36 95 l 0
 36 109 44 129 62 156 c 2
 398 638 l 1
 38 638 l 1
 42 699 69 731 142 731 c 2
66 1 m 1
 66 1 l 1
EndSplineSet
Validated: 1
EndChar

StartChar: K
Encoding: 75 75 62
Width: 593
VWidth: -23
Flags: W
HStem: 1 21G<52 145>
VStem: 52 93<1 295 425 731>
LayerCount: 2
Fore
SplineSet
431 719 m 2
 442 729 452 732 462 732 c 0
 474 732 485 729 496 718 c 2
 529 684 l 1
 212 362 l 1
 551 69 l 2
 560 60 564 49 564 36 c 0
 564 25 560 14 551 4 c 0
 549 1 538 -9 519 -9 c 0
 506 -9 494 -4 485 4 c 2
 145 295 l 1
 145 1 l 1
 52 1 l 1
 52 731 l 1
 145 731 l 1
 145 425 l 1
 431 719 l 2
EndSplineSet
Validated: 1
EndChar

StartChar: one
Encoding: 49 49 63
Width: 175
VWidth: 0
Flags: W
VStem: 40 92<2 460.478>
LayerCount: 2
Fore
SplineSet
132 509 m 5
 132 2 l 5
 40 2 l 5
 40 380 l 6
 40 456 84 498 132 509 c 5
EndSplineSet
Validated: 1
EndChar

StartChar: two
Encoding: 50 50 64
Width: 531
VWidth: 0
Flags: W
HStem: 0 94<116 455.137> 419 82<80.2185 365.401>
VStem: 370 94<284.565 388>
LayerCount: 2
Fore
SplineSet
135 501 m 6
 345 501 l 6
 421 501 460 460 464 412 c 6
 464 411 l 5
 464 311 l 6
 464 284 446 259 425 246 c 6
 116 94 l 5
 479 94 l 5
 476 51 464 0 400 0 c 6
 65 0 l 6
 60 1 59 1 55 1 c 4
 45 4 38 10 35 21 c 4
 35 22 35 22 35 28 c 6
 35 92 l 6
 35 94 l 4
 35 98 35 99 38 102 c 4
 41 110 50 120 68 134 c 5
 340 276 l 6
 344 279 349 281 350 284 c 4
 369 296 370 311 370 319 c 4
 370 320 370 320 370 321 c 6
 370 388 l 5
 369 390 l 6
 365 406 351 419 332 419 c 6
 58 419 l 5
 64 478 92 501 135 501 c 6
464 411 m 5
 465 380 l 5
 496 390 l 5
 464 414 l 5
 464 411 l 5
EndSplineSet
Validated: 5
EndChar

StartChar: three
Encoding: 51 51 65
Width: 450
VWidth: 0
Flags: W
HStem: -231 92<30.0923 298.852> 126 62<105 109.999 109.999 283.352> 422 83<53.8847 282.655>
VStem: 288 92<192.995 228 228 382 382 390> 304 94<-133.861 -100 -100 116.431>
LayerCount: 2
Fore
SplineSet
108 505 m 6xf0
 262 505 l 6
 339 505 378 462 380 415 c 6
 380 195 l 6xf0
 380 191 380 185 372 178 c 4
 369 174 362 171 361 170 c 6
 310 142 l 5
 364 124 l 6
 384 118 398 85 398 65 c 6
 398 -102 l 6
 398 -182 349 -231 271 -231 c 6
 71 -231 l 6
 25 -231 10 -175 6 -139 c 5
 92 -139 180 -139 266 -139 c 4
 288 -138 304 -120 304 -100 c 6
 304 89 l 6xe8
 304 104 289 126 266 126 c 6
 109 126 l 6
 102 128 102 128 99 129 c 4
 85 136 79 150 80 159 c 4
 80 164 80 165 82 169 c 4
 86 175 94 184 105 188 c 4
 106 188 l 6
 108 188 109 188 109 188 c 6
 109 189 110 189 110 189 c 5
 249 189 l 6
 269 189 288 205 288 228 c 6
 288 390 l 5
 286 394 l 6
 282 409 269 422 250 422 c 6
 30 422 l 5
 36 481 65 504 108 505 c 6xf0
6 -139 m 5
 5 -129 5 -120 5 -115 c 4
 5 -114 5 -114 5 -114 c 5
 -20 -139 l 5
 6 -139 l 5
380 415 m 5
 382 382 l 5
 414 394 l 5
 380 418 l 5
 380 415 l 5
EndSplineSet
Validated: 37
EndChar

StartChar: four
Encoding: 52 52 66
Width: 511
VWidth: 0
Flags: W
HStem: 2 66<92 301 395 483.547>
VStem: 301 94<-239 2 68 359>
LayerCount: 2
Fore
SplineSet
349 498 m 4
 374 498 395 478 395 451 c 6
 395 66 l 5
 455 66 l 6
 472 66 486 52 486 34 c 6
 486 2 l 5
 395 2 l 5
 395 -239 l 5
 301 -239 l 5
 301 2 l 5
 49 2 l 6
 26 2 8 24 8 48 c 4
 8 56 10 65 15 72 c 6
 301 470 l 6
 304 474 308 476 310 479 c 6
 311 480 l 5
 312 482 l 6
 321 492 334 498 349 498 c 4
301 68 m 5
 301 359 l 5
 92 68 l 5
 301 68 l 5
EndSplineSet
Validated: 1
EndChar

StartChar: five
Encoding: 53 53 67
Width: 520
VWidth: 0
Flags: W
HStem: -244 83<50.6854 368.731> 112 66<128 368.678> 415 83<131.115 415.828>
VStem: 35 93<178 414.943> 372 93<-154.039 -124 -124 107.782>
LayerCount: 2
Fore
SplineSet
35 406 m 6
 36 454 74 498 152 498 c 6
 360 498 l 6
 404 498 432 474 439 415 c 5
 128 415 l 5
 128 178 l 5
 348 178 l 6
 425 178 465 118 465 52 c 6
 465 -126 l 6
 465 -206 421 -244 335 -244 c 6
 98 -244 l 6
 62 -244 38 -224 32 -161 c 5
 335 -161 l 6
 342 -161 372 -154 372 -124 c 6
 372 76 l 6
 372 98 354 112 335 112 c 6
 35 112 l 5
 35 406 l 6
EndSplineSet
Validated: 1
EndChar

StartChar: six
Encoding: 54 54 68
Width: 555
VWidth: 0
Flags: W
HStem: 2 100<145.246 405.474> 402 92<143.625 406.248> 665 83<144.852 441.86>
VStem: 48 92<108.255 148 148 398.448 488 660.612> 411 93<108.255 397.053>
LayerCount: 2
Fore
SplineSet
372 402 m 6
 178 402 l 6
 158 402 140 386 140 365 c 6
 140 141 l 6
 140 120 158 102 178 102 c 6
 372 102 l 6
 394 102 411 120 411 141 c 6
 411 365 l 6
 411 386 394 402 372 402 c 6
172 748 m 6
 399 748 l 6
 445 748 459 699 464 665 c 5
 178 665 l 6
 156 665 140 646 140 628 c 6
 140 488 l 5
 169 491 l 6
 176 492 185 494 192 494 c 6
 359 494 l 6
 441 494 504 448 504 369 c 6
 504 148 l 6
 504 68 439 2 359 2 c 6
 192 2 l 6
 111 2 48 68 48 148 c 6
 48 619 l 6
 48 699 96 748 172 748 c 6
464 665 m 5
 465 655 465 648 465 641 c 4
 490 665 l 5
 464 665 l 5
EndSplineSet
Validated: 5
EndChar

StartChar: nine
Encoding: 57 57 69
Width: 543
VWidth: 0
Flags: W
HStem: -240 92<97.9361 392.521> 16 92<132.645 394.645> 406 94<133.032 391.968>
VStem: 34 94<113.91 149 149 400.968> 398 93<-143.807 24 111.552 400.968>
LayerCount: 2
Fore
SplineSet
128 145 m 6
 128 124 144 108 165 108 c 6
 360 108 l 6
 381 108 398 124 398 145 c 6
 398 369 l 6
 398 390 381 406 360 406 c 6
 165 406 l 6
 144 406 128 390 128 369 c 6
 128 145 l 6
365 -240 m 6
 139 -240 l 6
 92 -240 79 -185 74 -148 c 5
 170 -148 265 -148 360 -148 c 4
 381 -148 398 -129 398 -110 c 6
 398 24 l 5
 369 19 l 6
 361 18 354 16 345 16 c 6
 180 16 l 6
 98 16 34 70 34 149 c 6
 34 354 l 6
 34 435 99 500 180 500 c 6
 345 500 l 6
 426 500 491 435 491 354 c 6
 491 -112 l 6
 491 -192 442 -240 365 -240 c 6
74 -148 m 5
 74 -139 72 -130 72 -124 c 4
 72 -122 l 5
 48 -148 l 5
 74 -148 l 5
EndSplineSet
Validated: 5
EndChar

StartChar: zero
Encoding: 48 48 70
Width: 481
VWidth: 0
Flags: W
HStem: 1 93<134.745 344.754> 404 94<136.645 346.49>
VStem: 38 93<97.745 398.075> 350 92<99.5257 400.426>
LayerCount: 2
Fore
SplineSet
312 404 m 6
 169 404 l 6
 148 404 131 388 131 366 c 6
 131 132 l 6
 131 111 148 94 169 94 c 6
 312 94 l 6
 332 94 350 111 350 132 c 6
 350 366 l 6
 350 388 332 404 312 404 c 6
184 498 m 6
 390 498 l 6
 391 498 391 496 392 496 c 5
 414 491 442 461 442 431 c 6
 442 146 l 6
 442 66 379 1 298 1 c 6
 118 1 l 6
 92 1 38 42 38 80 c 6
 38 351 l 6
 38 432 102 498 184 498 c 6
392 496 m 5
 394 496 392 498 392 496 c 5
EndSplineSet
Validated: 5
EndChar

StartChar: seven
Encoding: 55 55 71
Width: 516
VWidth: 0
Flags: W
HStem: 415 93<34.8696 378>
LayerCount: 2
Fore
SplineSet
75 508 m 6
 439 508 l 6
 465 508 485 488 485 461 c 6
 485 429 l 6
 485 420 485 409 479 396 c 6
 479 395 l 5
 278 -210 l 6
 272 -221 258 -230 244 -230 c 6
 152 -230 l 5
 378 415 l 5
 14 415 l 5
 18 465 35 508 75 508 c 6
EndSplineSet
Validated: 1
EndChar

StartChar: eight
Encoding: 56 56 72
Width: 525
VWidth: 0
Flags: W
HStem: 2 100<140.538 381.474> 359 61<159.052 361.948> 651 90<160.645 360.861>
VStem: 41 94<108.255 353.751> 62 93<424.583 644.358> 366 93<424.583 644.358> 386 94<108.255 353.98>
LayerCount: 2
Fore
SplineSet
208 741 m 6xe8
 314 741 l 6
 395 741 459 689 459 609 c 6
 459 499 l 6xec
 459 465 448 435 429 410 c 6
 411 388 l 5
 436 372 l 6
 464 358 480 325 480 295 c 6
 480 148 l 6
 480 68 415 2 335 2 c 6
 188 2 l 6
 106 2 41 68 41 148 c 6
 41 295 l 6xf2
 41 325 58 358 85 372 c 6
 110 388 l 5
 92 410 l 6
 74 435 62 465 62 499 c 6
 62 609 l 6
 62 689 126 741 208 741 c 6xe8
366 614 m 6
 366 634 349 651 328 651 c 6
 194 651 l 6
 172 651 155 634 155 614 c 6
 155 458 l 6
 155 438 172 420 194 420 c 6
 328 420 l 6
 349 420 366 438 366 458 c 6
 366 614 l 6
386 321 m 6xf2
 386 341 370 359 349 359 c 6
 172 359 l 6
 151 359 135 341 135 321 c 6
 135 141 l 6
 135 120 151 102 172 102 c 6
 349 102 l 6
 370 102 386 120 386 141 c 6
 386 321 l 6xf2
EndSplineSet
Validated: 1
EndChar

StartChar: acute
Encoding: 180 180 73
Width: 435
VWidth: 0
Flags: W
HStem: 599 177
VStem: 82 274
LayerCount: 2
Fore
SplineSet
351 756 m 0
 355 750 356 742 356 735 c 0
 356 721 350 709 338 702 c 2
 114 600 l 2
 111 599 109 599 106 599 c 0
 100 599 94 601 91 608 c 2
 82 620 l 1
 296 771 l 2
 301 775 308 776 316 776 c 0
 330 776 344 770 351 756 c 0
EndSplineSet
EndChar

StartChar: grave
Encoding: 96 96 74
Width: 435
VWidth: 0
Flags: W
HStem: 599 177
VStem: 80 271
LayerCount: 2
Fore
SplineSet
118 776 m 0
 130 776 136 772 138 771 c 2
 351 620 l 1
 344 608 l 2
 340 601 334 599 329 599 c 0
 328 599 l 2
 328 599 326 599 324 599 c 1
 95 702 l 1
 94 704 92 705 91 706 c 1
 91 706 91 705 89 708 c 0
 86 710 82 714 80 720 c 0
 79 725 78 730 78 735 c 0
 78 742 79 750 82 756 c 0
 90 770 104 776 118 776 c 0
91 706 m 1
 91 706 l 1
EndSplineSet
Validated: 1
EndChar

StartChar: dieresis
Encoding: 168 168 75
Width: 465
VWidth: 0
Flags: W
HStem: 649 116<77.8481 166.745 301.255 390.745>
VStem: 65 115<662.171 751.661> 288 116<662.171 751.661>
LayerCount: 2
Fore
SplineSet
180 706 m 0
 180 675 154 649 122 649 c 0
 90 649 65 675 65 706 c 0
 65 739 90 765 122 765 c 0
 154 765 180 739 180 706 c 0
404 706 m 0
 404 675 378 649 346 649 c 0
 314 649 288 675 288 706 c 0
 288 739 314 765 346 765 c 0
 378 765 404 739 404 706 c 0
EndSplineSet
Validated: 1
EndChar

StartChar: dotlessi
Encoding: 305 305 76
Width: 311
VWidth: 0
Flags: W
VStem: 110 94<25 513.653>
LayerCount: 2
Fore
SplineSet
158 521 m 0
 182 521 204 500 204 475 c 2
 204 25 l 1
 110 25 l 1
 110 475 l 2
 110 500 131 521 158 521 c 0
EndSplineSet
EndChar

StartChar: caron
Encoding: 711 711 77
Width: 478
VWidth: 0
Flags: W
HStem: 609 179
LayerCount: 2
Fore
SplineSet
65 778 m 2
 70 785 76 788 81 788 c 0
 84 788 86 786 89 785 c 2
 240 691 l 1
 392 785 l 1
 394 786 396 788 400 788 c 0
 406 788 411 784 415 779 c 2
 424 764 l 1
 260 614 l 1
 254 610 246 609 240 609 c 0
 232 609 226 611 220 614 c 1
 58 764 l 1
 65 778 l 2
EndSplineSet
EndChar

StartChar: circumflex
Encoding: 710 710 78
Width: 478
VWidth: 0
Flags: W
HStem: 602 178
LayerCount: 2
Fore
SplineSet
65 611 m 2
 58 626 l 1
 220 776 l 1
 226 779 232 780 240 780 c 0
 246 780 254 779 260 776 c 1
 424 626 l 1
 415 611 l 2
 411 605 406 602 400 602 c 0
 398 602 395 602 392 604 c 1
 392 604 278 675 249 694 c 2
 240 698 l 1
 89 604 l 2
 86 602 84 602 81 602 c 0
 76 602 70 605 65 611 c 2
EndSplineSet
EndChar

StartChar: ring
Encoding: 730 730 79
Width: 420
VWidth: 0
Flags: W
HStem: 601 38<167.355 254.645> 759 36<168.91 253.09>
VStem: 114 37<656.408 740.806> 271 37<656.408 740.806>
LayerCount: 2
Fore
SplineSet
308 699 m 0
 308 645 264 601 211 601 c 0
 158 601 114 645 114 699 c 0
 114 752 158 795 211 795 c 0
 264 795 308 752 308 699 c 0
271 699 m 0
 271 731 244 759 211 759 c 0
 178 759 151 731 151 699 c 0
 151 665 178 639 211 639 c 0
 244 639 271 665 271 699 c 0
EndSplineSet
EndChar

StartChar: breve
Encoding: 728 728 80
Width: 546
VWidth: 0
Flags: W
HStem: 612 67<206.105 341.109>
LayerCount: 2
Fore
SplineSet
124 771 m 0
 130 771 140 769 145 764 c 0
 179 729 206 679 274 679 c 0
 341 679 370 729 402 764 c 0
 409 769 418 771 425 771 c 0
 429 771 432 770 438 769 c 0
 438 768 439 768 439 768 c 1
 440 768 440 766 440 768 c 1
 440 766 440 766 440 766 c 1
 451 758 l 1
 402 676 354 612 274 612 c 0
 204 612 146 665 98 758 c 1
 109 766 l 2
 110 768 110 768 111 769 c 0
 112 769 l 1
 115 770 120 771 124 771 c 0
EndSplineSet
EndChar

StartChar: periodcentered
Encoding: 183 183 82
Width: 300
VWidth: 0
Flags: W
HStem: 331 147<100.37 201.243>
VStem: 78 146<352.5 456>
LayerCount: 2
Fore
SplineSet
224 404 m 4
 224 364 191 331 151 331 c 4
 110 331 78 364 78 404 c 4
 78 444 110 478 151 478 c 4
 191 478 224 444 224 404 c 4
EndSplineSet
EndChar

StartChar: parenright
Encoding: 41 41 83
Width: 417
VWidth: 0
Flags: W
VStem: 186 92<-96.7656 -39 -14 556 581 639.75>
LayerCount: 2
Fore
SplineSet
101 769 m 0
 102 769 l 0
 109 769 121 768 135 751 c 2
 136 750 l 1
 259 638 l 2
 275 621 278 602 278 581 c 2
 278 -39 l 2
 278 -60 275 -79 259 -95 c 2
 136 -208 l 1
 135 -209 l 2
 121 -225 109 -226 102 -226 c 0
 100 -226 96 -225 96 -225 c 2
 88 -224 78 -218 78 -209 c 0
 78 -206 78 -202 81 -198 c 1
 162 -112 l 1
 164 -110 l 2
 179 -89 186 -76 186 -45 c 0
 186 -42 186 -40 186 -39 c 2
 186 -29 l 1
 186 571 l 1
 186 581 l 2
 186 582 186 585 186 588 c 0
 186 612 182 626 164 652 c 2
 162 655 l 1
 81 740 l 1
 78 745 76 749 78 751 c 0
 79 764 91 768 96 768 c 0
 98 768 96 769 101 769 c 0
186 571 m 1
 186 581 l 1
 161 556 l 1
 186 556 l 1
 186 571 l 1
186 -29 m 1
 186 -14 l 1
 161 -14 l 1
 186 -39 l 1
 186 -29 l 1
EndSplineSet
Validated: 5
EndChar

StartChar: parenleft
Encoding: 40 40 84
Width: 417
VWidth: 0
Flags: W
VStem: 142 90<-96.7656 639.75>
LayerCount: 2
Fore
SplineSet
318 769 m 0
 320 769 324 768 324 768 c 2
 336 765 342 758 342 751 c 0
 342 749 341 745 339 740 c 1
 256 655 l 1
 255 652 l 2
 241 631 232 619 232 588 c 0
 232 585 232 582 232 581 c 2
 232 571 l 1
 232 -29 l 1
 232 -39 l 2
 232 -40 232 -42 232 -45 c 0
 232 -70 238 -84 255 -110 c 2
 256 -112 l 1
 339 -198 l 1
 341 -202 342 -206 342 -209 c 0
 341 -221 328 -225 322 -225 c 0
 321 -226 322 -226 318 -226 c 0
 311 -226 298 -225 284 -209 c 2
 284 -208 l 1
 161 -95 l 2
 145 -79 142 -60 142 -39 c 2
 142 581 l 2
 142 602 145 621 161 638 c 2
 284 750 l 1
 284 751 l 2
 294 761 304 769 318 769 c 0
232 -29 m 1
 232 -39 l 1
 258 -14 l 1
 234 -14 l 1
 232 -29 l 1
232 571 m 1
 234 556 l 1
 258 556 l 1
 232 581 l 1
 232 571 l 1
EndSplineSet
Validated: 5
EndChar

StartChar: uni0237
Encoding: 567 567 85
Width: 310
VWidth: 0
Flags: W
VStem: 109 92<-96.218 -39 -14 514.246>
LayerCount: 2
Fore
SplineSet
155 521 m 0
 181 521 201 500 201 475 c 2
 201 -39 l 2
 201 -72 189 -88 181 -95 c 2
 58 -208 l 1
 58 -209 l 2
 44 -225 31 -226 24 -226 c 0
 22 -226 19 -225 19 -225 c 2
 10 -224 -1 -218 -1 -209 c 0
 -1 -206 0 -202 2 -198 c 1
 85 -112 l 1
 86 -110 l 2
 100 -89 109 -76 109 -45 c 0
 109 -42 109 -40 109 -39 c 2
 109 -29 l 1
 109 475 l 2
 109 500 129 521 155 521 c 0
109 -29 m 1
 109 -14 l 1
 84 -14 l 1
 109 -39 l 1
 109 -29 l 1
EndSplineSet
EndChar

StartChar: igrave
Encoding: 236 236 117
Width: 249
VWidth: 0
Flags: HW
HStem: 640 177
VStem: 142 271 299 94<25 513.653>
LayerCount: 2
Fore
SplineSet
140 496 m 0xa0
 164 496 186 475 186 450 c 2
 186 0 l 1
 92 0 l 1
 92 450 l 2
 92 475 113 496 140 496 c 0xa0
EndSplineSet
Refer: 74 96 S 1 0 0 1 -118 -16 2
EndChar

StartChar: iacute
Encoding: 237 237 118
Width: 249
VWidth: 0
Flags: HW
HStem: 640 177
VStem: 86 274 110 94<25 513.653>
LayerCount: 2
Fore
SplineSet
125 496 m 0xa0
 149 496 171 475 171 450 c 2
 171 0 l 1
 77 0 l 1
 77 450 l 2
 77 475 98 496 125 496 c 0xa0
EndSplineSet
Refer: 73 180 S 1 0 0 1 -38 2 2
EndChar

StartChar: icircumflex
Encoding: 238 238 119
Width: 249
VWidth: 0
Flags: HW
VStem: 110 94<25 513.653>
LayerCount: 2
Fore
SplineSet
126 496 m 0
 150 496 172 475 172 450 c 2
 172 0 l 1
 78 0 l 1
 78 450 l 2
 78 475 99 496 126 496 c 0
EndSplineSet
Refer: 78 710 N 1 0 0 1 -117 -24 2
EndChar

StartChar: idieresis
Encoding: 239 239 120
Width: 249
VWidth: 0
Flags: W
HStem: 639 116<2.8481 91.745 226.255 315.745>
VStem: -10 115<652.171 741.661> 110 94<25 513.653> 213 116<652.171 741.661>
LayerCount: 2
Fore
SplineSet
158 521 m 0
 182 521 204 500 204 475 c 2
 204 25 l 1
 110 25 l 1
 110 475 l 2
 110 500 131 521 158 521 c 0
EndSplineSet
Refer: 75 168 S 1 0 0 1 -75 -10 2
EndChar

StartChar: ocircumflex
Encoding: 244 244 123
Width: 580
VWidth: 0
Flags: W
HStem: -8 93<133.526 445.474> 405 93<133.526 445.861>
VStem: 35 93<90.6448 399.355> 451 93<90.6448 399.355>
LayerCount: 2
Fore
SplineSet
114 647 m 2
 107 662 l 1
 269 812 l 1
 275 815 281 816 289 816 c 0
 295 816 303 815 309 812 c 1
 473 662 l 1
 464 647 l 2
 460 641 455 638 449 638 c 0
 447 638 444 638 441 640 c 1
 441 640 327 711 298 730 c 2
 289 734 l 1
 138 640 l 2
 135 638 133 638 130 638 c 0
 125 638 119 641 114 647 c 2
EndSplineSet
Refer: 8 111 N 1 0 0 1 0 0 3
EndChar

StartChar: ucircumflex
Encoding: 251 251 127
Width: 538
VWidth: 0
Flags: W
HStem: -1 95<136.793 316.938> 32 62<350.423 400.217>
VStem: 40 92<99.0064 498> 404 94<1 32 97.8023 131 131 498>
LayerCount: 2
Fore
SplineSet
93 647 m 2x30
 86 662 l 1
 248 812 l 1
 254 815 260 816 268 816 c 0
 274 816 282 815 288 812 c 1
 452 662 l 1
 443 647 l 2
 439 641 434 638 428 638 c 0
 426 638 423 638 420 640 c 1
 420 640 306 711 277 730 c 2
 268 734 l 1
 117 640 l 2
 114 638 112 638 109 638 c 0
 104 638 98 641 93 647 c 2x30
EndSplineSet
Refer: 4 117 N 1 0 0 1 0 0 3
EndChar

StartChar: Abreve
Encoding: 258 258 131
Width: 602
VWidth: 0
Flags: W
HStem: 0 21<58.5 83 515 526> 174 94<195 404> 872 67<265.105 400.109>
LayerCount: 2
Fore
SplineSet
183 1031 m 0
 189 1031 199 1029 204 1024 c 0
 238 989 265 939 333 939 c 0
 400 939 429 989 461 1024 c 0
 468 1029 477 1031 484 1031 c 0
 488 1031 491 1030 497 1029 c 0
 497 1028 498 1028 498 1028 c 1
 499 1028 499 1026 499 1028 c 1
 499 1026 499 1026 499 1026 c 1
 510 1018 l 1
 461 936 413 872 333 872 c 0
 263 872 205 925 157 1018 c 1
 168 1026 l 2
 169 1028 169 1028 170 1029 c 0
 171 1029 l 1
 174 1030 179 1031 183 1031 c 0
EndSplineSet
Refer: 45 65 N 1 0 0 1 0 0 3
EndChar

StartChar: abreve
Encoding: 259 259 132
Width: 520
VWidth: 0
Flags: W
HStem: -6 97<121.874 248.062> 220 46<334.25 389> 220 80<121.745 293.188> 404 94<141.152 383.103> 638 67<172.105 307.109>
VStem: 25 93<96.6895 214.471> 389 93<1 44 91 220 266 397.622>
LayerCount: 2
Fore
SplineSet
90 797 m 0x9e
 96 797 106 795 111 790 c 0
 145 755 172 705 240 705 c 0
 307 705 336 755 368 790 c 0
 375 795 384 797 391 797 c 0
 395 797 398 796 404 795 c 0
 404 794 405 794 405 794 c 1
 406 794 406 792 406 794 c 1
 406 792 406 792 406 792 c 1
 417 784 l 1
 368 702 320 638 240 638 c 0
 170 638 112 691 64 784 c 1
 75 792 l 2
 76 794 76 794 77 795 c 0
 78 795 l 1
 81 796 86 797 90 797 c 0x9e
EndSplineSet
Refer: 3 97 N 1 0 0 1 0 0 3
EndChar

StartChar: Ccircumflex
Encoding: 264 264 135
Width: 567
VWidth: 0
Flags: W
HStem: 2 93<145.032 455.076> 639 93<145.032 444.464>
VStem: 46 94<100.645 148 148 633.355>
LayerCount: 2
Fore
SplineSet
94 882 m 2
 87 897 l 1
 249 1047 l 1
 255 1050 261 1051 269 1051 c 0
 275 1051 283 1050 289 1047 c 1
 453 897 l 1
 444 882 l 2
 440 876 435 873 429 873 c 0
 427 873 424 873 421 875 c 1
 421 875 307 946 278 965 c 2
 269 969 l 1
 118 875 l 2
 115 873 113 873 110 873 c 0
 105 873 99 876 94 882 c 2
EndSplineSet
Refer: 40 67 N 1 0 0 1 0 0 3
EndChar

StartChar: ccircumflex
Encoding: 265 265 136
Width: 498
VWidth: 0
Flags: W
HStem: 1 91<135.766 427.838> 412 93<135.766 427.838>
VStem: 36 93<97.0849 145 145 408.022>
LayerCount: 2
Fore
SplineSet
80 647 m 2
 73 662 l 1
 235 812 l 1
 241 815 247 816 255 816 c 0
 261 816 269 815 275 812 c 1
 439 662 l 1
 430 647 l 2
 426 641 421 638 415 638 c 0
 413 638 410 638 407 640 c 1
 407 640 293 711 264 730 c 2
 255 734 l 1
 104 640 l 2
 101 638 99 638 96 638 c 0
 91 638 85 641 80 647 c 2
EndSplineSet
Refer: 24 99 N 1 0 0 1 0 0 3
EndChar

StartChar: tcaron
Encoding: 357 357 194
Width: 526
VWidth: 0
Flags: W
HStem: 428 93<71.3474 181 274 357.901>
VStem: 181 93<25 428 521 747.901> 455 110<661.433 742.726> 512 53<583.609 644.75>
LayerCount: 2
Fore
SplineSet
228 755 m 0xc0
 254 755 274 735 274 709 c 2
 274 521 l 1
 319 521 l 2
 345 521 365 500 365 475 c 2
 365 428 l 1
 274 428 l 1
 274 25 l 1
 181 25 l 1
 181 428 l 1
 110 428 l 2
 85 428 64 449 64 475 c 0
 64 500 85 521 110 521 c 2
 181 521 l 1
 181 709 l 2
 181 735 201 755 228 755 c 0xc0
511 755 m 0
 541 755 565 731 565 701 c 2xe0
 565 648 l 2xd0
 565 625 559 606 551 594 c 2
 484 499 l 2
 481 496 481 496 479 494 c 0
 475 491 471 490 466 490 c 0
 459 490 455 494 455 495 c 0xe0
 455 496 456 499 458 500 c 2
 459 501 l 1
 502 586 l 2
 506 592 512 604 512 620 c 0xd0
 512 621 512 626 511 629 c 2
 510 645 l 1
 495 650 l 2
 474 658 458 678 458 701 c 0
 458 731 481 755 511 755 c 0
EndSplineSet
EndChar

StartChar: uni0202
Encoding: 514 514 237
Width: 602
VWidth: 0
Flags: W
HStem: 0 21<58.5 83 515 526> 174 94<195 404> 950 96<247.573 367.851>
LayerCount: 2
Fore
SplineSet
158 858 m 4
 148 858 138 861 131 866 c 6
 111 882 l 5
 155 968 216 1046 308 1046 c 4
 400 1046 455 966 504 882 c 5
 482 866 l 6
 478 861 468 858 458 858 c 4
 446 858 434 861 425 870 c 4
 394 902 368 950 308 950 c 4
 248 950 221 902 190 870 c 4
 181 861 169 858 158 858 c 4
EndSplineSet
Refer: 45 65 N 1 0 0 1 0 0 3
EndChar

StartChar: uni0203
Encoding: 515 515 238
Width: 520
VWidth: 0
Flags: W
HStem: -6 97<121.874 248.062> 220 46<334.25 389> 220 80<121.745 293.188> 404 94<141.152 383.103> 716 95<216.585 342.491>
VStem: 25 93<96.6895 214.471> 389 93<1 44 91 220 266 397.622>
LayerCount: 2
Fore
SplineSet
130 624 m 4x9e
 129 624 l 4
 119 624 110 626 104 631 c 6
 84 649 l 5
 126 734 189 811 280 811 c 4
 372 811 426 732 476 649 c 5
 455 631 l 6
 449 626 440 624 430 624 c 4
 418 624 405 628 398 636 c 4
 366 669 340 716 280 716 c 4
 219 716 192 669 161 636 c 4
 154 628 141 624 130 624 c 4x9e
EndSplineSet
Refer: 3 97 N 1 0 0 1 0 0 3
EndChar

StartChar: uni0206
Encoding: 518 518 239
Width: 565
VWidth: 0
Flags: W
HStem: 2 93<145 514.775> 311 94<145 422> 639 93<145 491.854> 950 96<213.827 336.031>
VStem: 52 93<95 311 405 639>
LayerCount: 2
Fore
SplineSet
126 858 m 0
 115 858 106 861 100 866 c 2
 80 882 l 1
 124 968 185 1046 276 1046 c 0
 369 1046 422 966 472 882 c 1
 451 866 l 2
 446 861 436 858 426 858 c 0
 414 858 402 861 394 870 c 0
 362 902 336 950 276 950 c 0
 215 950 189 902 158 870 c 0
 150 861 138 858 126 858 c 0
EndSplineSet
Refer: 59 69 N 1 0 0 1 0 0 3
EndChar

StartChar: uni0207
Encoding: 519 519 240
Width: 552
VWidth: 0
Flags: W
HStem: 0 92<139.185 425.185> 235 59<128 425> 421 85<160.281 412.531> 716 95<215.15 337.052>
VStem: 34 94<121.416 156 156 235 294 410.346> 425 94<294 410.346>
LayerCount: 2
Fore
SplineSet
126 624 m 0
 116 624 106 626 100 631 c 2
 80 649 l 1
 124 734 185 811 276 811 c 0
 369 811 424 732 472 649 c 1
 452 631 l 2
 446 626 436 624 426 624 c 0
 415 624 402 628 394 636 c 0
 362 669 336 716 276 716 c 0
 216 716 190 669 159 636 c 0
 150 628 138 624 126 624 c 0
EndSplineSet
Refer: 11 101 N 1 0 0 1 0 0 3
EndChar

StartChar: uni020A
Encoding: 522 522 241
Width: 210
VWidth: 0
Flags: W
HStem: 1 21<52 145> 950 96<73.7333 194.666>
VStem: 52 93<1 723.653>
LayerCount: 2
Fore
SplineSet
-16 858 m 0
 -26 858 -36 861 -41 866 c 2
 -62 882 l 1
 -19 968 42 1046 134 1046 c 0
 228 1046 281 966 330 882 c 1
 310 866 l 2
 304 861 295 858 285 858 c 0
 272 858 260 861 252 870 c 0
 221 902 195 950 134 950 c 0
 74 950 48 902 16 870 c 0
 9 861 -4 858 -16 858 c 0
EndSplineSet
Refer: 49 73 N 1 0 0 1 0 0 3
EndChar

StartChar: uni020B
Encoding: 523 523 242
Width: 311
VWidth: 0
Flags: W
HStem: 741 45<85.125 225.488>
VStem: -9 329 110 94<25 513.653>
LayerCount: 2
Fore
SplineSet
6 649 m 0xc0
 0 649 -2 650 -4 651 c 2
 -9 655 l 1
 39 739 91 786 156 786 c 0
 228 786 272 732 320 655 c 1
 315 651 l 2
 315 650 310 649 306 649 c 0
 298 649 294 651 292 654 c 0
 265 681 230 741 156 741 c 0
 82 741 46 681 20 654 c 0
 19 651 14 649 6 649 c 0xc0
EndSplineSet
Refer: 76 305 N 1 0 0 1 0 0 3
EndChar

StartChar: uni020E
Encoding: 526 526 243
Width: 621
VWidth: 0
Flags: W
HStem: 1 93<145.032 458.075> 638 93<145.032 458.075> 950 96<241.04 361.928>
VStem: 46 94<99.5257 631.968> 464 94<99.5257 631.968>
LayerCount: 2
Fore
SplineSet
151 858 m 0
 141 858 131 861 126 866 c 2
 105 882 l 1
 149 968 210 1046 301 1046 c 0
 395 1046 449 966 498 882 c 1
 478 866 l 2
 471 861 462 858 452 858 c 0
 440 858 428 861 420 870 c 0
 389 902 362 950 301 950 c 0
 241 950 215 902 184 870 c 0
 176 861 164 858 151 858 c 0
EndSplineSet
Refer: 38 79 N 1 0 0 1 0 0 3
EndChar

StartChar: uni020F
Encoding: 527 527 244
Width: 580
VWidth: 0
Flags: W
HStem: -8 93<133.526 445.474> 405 93<133.526 445.861> 716 95<226.725 352.491>
VStem: 35 93<90.6448 399.355> 451 93<90.6448 399.355>
LayerCount: 2
Fore
SplineSet
140 624 m 0
 129 624 120 626 114 631 c 2
 94 649 l 1
 138 734 199 811 290 811 c 0
 382 811 436 732 486 649 c 1
 465 631 l 2
 460 626 450 624 440 624 c 0
 428 624 415 628 408 636 c 0
 376 669 350 716 290 716 c 0
 229 716 202 669 171 636 c 0
 164 628 151 624 140 624 c 0
EndSplineSet
Refer: 8 111 N 1 0 0 1 0 0 3
EndChar

StartChar: uni0212
Encoding: 530 530 245
Width: 520
VWidth: 0
Flags: W
HStem: 1 21<52 145> 310 94<145 308> 636 95<145 384.645> 950 96<194.977 315.057>
VStem: 52 93<1 310 404 636> 390 94<408.989 441 441 629.159>
LayerCount: 2
Fore
SplineSet
105 858 m 4
 95 858 85 861 79 866 c 6
 59 882 l 5
 102 968 164 1046 255 1046 c 4
 348 1046 402 966 451 882 c 5
 431 866 l 6
 425 861 415 858 405 858 c 4
 394 858 381 861 372 870 c 4
 341 902 315 950 255 950 c 4
 195 950 169 902 138 870 c 4
 129 861 116 858 105 858 c 4
EndSplineSet
Refer: 42 82 N 1 0 0 1 0 0 3
EndChar

StartChar: uni0213
Encoding: 531 531 246
Width: 493
VWidth: 0
Flags: W
HStem: 1 21<41 134> 404 96<208.062 407.134> 719 96<196.04 316.401>
VStem: 41 93<1 400.334 464 498>
LayerCount: 2
Fore
SplineSet
106 626 m 0
 96 626 86 630 81 634 c 2
 60 651 l 1
 104 736 165 815 256 815 c 0
 350 815 404 735 452 651 c 1
 432 634 l 2
 426 630 416 626 406 626 c 0
 395 626 382 630 375 639 c 0
 342 671 316 719 256 719 c 0
 196 719 170 671 139 639 c 0
 130 630 119 626 106 626 c 0
EndSplineSet
Refer: 6 114 N 1 0 0 1 0 0 3
EndChar

StartChar: uni0216
Encoding: 534 534 247
Width: 588
VWidth: 0
Flags: W
HStem: 1 93<147.491 426.426> 956 95<37.535 157.851>
VStem: 50 94<99.9799 729.97> 430 94<99.9799 725.146>
LayerCount: 2
Fore
SplineSet
-52 864 m 0
 -62 864 -72 866 -79 871 c 2
 -99 889 l 1
 -55 972 6 1051 98 1051 c 0
 190 1051 245 972 294 889 c 1
 272 871 l 2
 268 866 258 864 248 864 c 0
 236 864 224 868 215 876 c 0
 184 908 158 956 98 956 c 0
 38 956 11 908 -21 876 c 0
 -29 868 -41 864 -52 864 c 0
EndSplineSet
Refer: 47 85 N 1 0 0 1 0 0 3
EndChar

StartChar: uni0217
Encoding: 535 535 248
Width: 538
VWidth: 0
Flags: W
HStem: -1 95<136.793 316.938> 32 62<350.423 400.217> 716 95<206.016 331.52>
VStem: 40 92<99.0064 498> 404 94<1 32 97.8023 131 131 498>
LayerCount: 2
Fore
SplineSet
119 624 m 0x38
 109 624 99 626 92 631 c 2
 72 649 l 1
 116 734 178 811 269 811 c 0
 361 811 416 732 465 649 c 1
 444 631 l 2
 439 626 429 624 419 624 c 0
 408 624 395 628 386 636 c 0
 355 669 329 716 269 716 c 0
 209 716 182 669 150 636 c 0
 142 628 130 624 119 624 c 0x38
EndSplineSet
Refer: 4 117 N 1 0 0 1 0 0 3
EndChar

StartChar: cedilla
Encoding: 184 184 260
Width: 475
VWidth: 0
Flags: W
HStem: -226 77<178.716 271.061> -98 119<158.65 209> -98 68<209 271.061>
VStem: 139 70<-30 21> 272 70<-147.875 -98.3476>
LayerCount: 2
Fore
SplineSet
256 -226 m 0xb8
 218 -226 139 -186 139 -186 c 2
 135 -185 134 -182 134 -180 c 2
 134 -149 l 1
 266 -149 l 2
 270 -149 272 -146 272 -142 c 2
 272 -104 l 2
 272 -100 271 -98 266 -98 c 2xb8
 209 -98 l 2xd8
 178 -98 139 -72 139 -30 c 2xb8
 139 21 l 1
 209 21 l 1xd8
 209 -30 l 1
 210 -30 256 -29 256 -29 c 2
 312 -29 342 -65 342 -111 c 2
 342 -135 l 2
 342 -181 312 -226 256 -226 c 0xb8
EndSplineSet
EndChar

StartChar: Ccedilla
Encoding: 199 199 261
Width: 567
VWidth: 0
Flags: W
HStem: -236 47<324.025 431.517> -108 38<340.177 431.517> 2 114<228.732 299 339 535.772> 640 112<228.732 524.469>
VStem: 112 113<119.666 159 159 636.803> 299 40<-69.4899 -55 -55 2> 432 40<-188.75 -109.5>
LayerCount: 2
Fore
SplineSet
254 640 m 6
 238 640 225 628 225 612 c 6
 225 144 l 6
 225 129 238 116 254 116 c 6
 576 116 l 5
 574 104 l 6
 566 58 536 2 488 2 c 6
 339 2 l 5
 339 -70 l 5
 354 -70 l 6
 356 -70 396 -69 402 -69 c 4
 450 -69 472 -98 472 -136 c 6
 472 -160 l 6
 472 -200 450 -236 402 -236 c 4
 381 -236 332 -218 311 -209 c 6
 301 -204 l 5
 294 -206 l 5
 294 -201 l 5
 269 -189 l 5
 292 -189 l 5
 299 -181 l 5
 304 -189 l 5
 315 -189 l 5
 411 -189 l 6
 422 -189 432 -181 432 -168 c 6
 432 -130 l 6
 432 -122 429 -108 411 -108 c 6
 355 -108 l 6
 329 -108 299 -88 299 -55 c 6
 299 2 l 5
 268 2 l 6
 181 2 112 72 112 159 c 6
 112 598 l 6
 112 684 181 752 268 752 c 6
 474 752 l 6
 526 752 555 700 562 651 c 6
 564 640 l 5
 254 640 l 6
EndSplineSet
EndChar

StartChar: ccedilla
Encoding: 231 231 262
Width: 586
VWidth: 0
Flags: W
HStem: -236 27<311.755 398.878> -109 19<291.15 396.641> 2 93<201.536 271 291 494.838> 415 91<199.424 494.838>
VStem: 102 94<99.3038 409.915> 271 20<-89.4675 2> 405 20<-200.25 -117.271>
LayerCount: 2
Fore
SplineSet
278 -209 m 1
 374 -209 l 2
 390 -209 405 -196 405 -178 c 2
 405 -140 l 2
 405 -125 395 -109 374 -109 c 2
 318 -109 l 2
 295 -109 271 -91 271 -65 c 2
 271 2 l 1
 248 2 l 2
 149 6 102 70 102 148 c 2
 102 362 l 2
 102 446 155 506 254 506 c 2
 442 506 l 2
 501 506 521 450 528 415 c 1
 234 415 l 2
 212 415 196 398 196 378 c 2
 196 132 l 2
 196 111 212 95 234 95 c 2
 528 95 l 1
 521 60 501 2 442 2 c 2
 291 2 l 1
 291 -90 l 1
 316 -90 l 2
 319 -90 360 -89 365 -89 c 0
 405 -89 425 -111 425 -146 c 2
 425 -171 l 2
 425 -204 405 -236 364 -236 c 0
 348 -236 306 -222 278 -209 c 1
278 -209 m 1
 270 -206 262 -202 258 -200 c 2
 252 -198 l 1
 266 -216 l 1
 266 -209 l 1
 278 -209 l 1
EndSplineSet
EndChar

StartChar: numbersign
Encoding: 35 35 263
Width: 705
VWidth: 0
Flags: W
HStem: 249 51<59.5788 159 259 419 519 617.91> 470 51<89.8401 189 288 449 548 647.056>
VStem: 220 94<660.423 742.542>
LayerCount: 2
Fore
SplineSet
449 470 m 1
 281 470 l 1
 259 300 l 1
 426 300 l 1
 449 470 l 1
276 755 m 0
 299 755 314 740 314 720 c 0
 314 718 314 715 314 714 c 2
 288 521 l 1
 455 521 l 1
 480 708 l 2
 484 732 508 755 536 755 c 2
 579 755 l 1
 548 521 l 1
 630 521 l 2
 640 521 649 514 649 502 c 0
 649 501 649 502 649 500 c 2
 649 498 l 2
 646 482 631 470 616 470 c 2
 541 470 l 1
 519 300 l 1
 600 300 l 2
 611 300 620 292 620 282 c 0
 620 280 620 281 620 279 c 2
 619 276 l 2
 618 261 601 249 586 249 c 2
 511 249 l 1
 488 72 l 2
 485 48 460 25 432 25 c 0
 410 25 394 40 394 60 c 0
 394 62 394 65 395 66 c 2
 419 249 l 1
 251 249 l 1
 228 72 l 2
 225 48 200 25 172 25 c 2
 128 25 l 1
 159 249 l 1
 78 249 l 2
 66 249 58 256 58 266 c 0
 58 268 58 270 58 270 c 1
 58 272 l 2
 60 288 75 300 90 300 c 2
 166 300 l 1
 189 470 l 1
 106 470 l 2
 95 470 88 476 88 488 c 0
 88 489 88 490 88 490 c 1
 88 492 l 2
 90 509 105 521 120 521 c 2
 195 521 l 1
 220 708 l 2
 224 732 248 755 276 755 c 0
EndSplineSet
Validated: 1
EndChar

StartChar: dollar
Encoding: 36 36 264
Width: 620
VWidth: 0
Flags: W
HStem: 24 82<121.512 295 326 439.149> 335 94<176.632 439.678> 672 83<173.884 295 326 485.865>
VStem: 78 92<433.524 666.578> 295 31<-76 24 755 850.983> 444 92<113.004 144 144 330.972>
LayerCount: 2
Fore
SplineSet
326 851 m 1
 326 755 l 1
 431 755 l 2
 475 754 504 731 509 672 c 1
 208 672 l 2
 186 672 170 655 170 634 c 2
 170 466 l 2
 170 459 178 429 208 429 c 2
 419 429 l 2
 496 429 536 369 536 304 c 2
 536 141 l 2
 536 61 492 24 405 24 c 2
 326 24 l 1
 326 -61 l 2
 326 -70 319 -76 311 -76 c 2
 295 -76 l 1
 295 24 l 1
 169 24 l 2
 132 24 109 45 104 106 c 1
 405 106 l 2
 414 106 444 114 444 144 c 2
 444 299 l 2
 444 319 425 335 405 335 c 2
 195 335 l 2
 128 335 78 381 78 442 c 2
 78 662 l 2
 79 711 116 755 195 755 c 2
 295 755 l 1
 295 836 l 2
 295 845 302 851 311 851 c 2
 326 851 l 1
EndSplineSet
Validated: 1
EndChar

StartChar: Euro
Encoding: 8364 8364 265
Width: 630
VWidth: 0
Flags: W
HStem: 25 93<222.139 533.001> 275 51<52.3303 124 216 388> 444 51<52.1919 124 216 407.856> 662 93<222.139 521.46>
VStem: 124 92<123.139 275 326 444 495 656.861>
LayerCount: 2
Fore
SplineSet
269 755 m 2
 475 755 l 2
 519 754 546 710 554 662 c 1
 255 662 l 2
 235 662 216 646 216 624 c 2
 216 495 l 1
 382 495 l 2
 384 495 388 495 388 495 c 2
 398 492 405 485 408 475 c 0
 408 474 408 475 408 469 c 2
 408 444 l 1
 216 444 l 1
 216 326 l 1
 408 326 l 1
 408 300 l 1
 408 300 408 299 408 295 c 0
 405 285 398 278 388 275 c 0
 386 275 388 275 382 275 c 2
 216 275 l 1
 216 156 l 2
 216 136 232 118 255 118 c 2
 566 118 l 1
 558 71 529 25 489 25 c 2
 269 25 l 2
 188 25 124 89 124 170 c 2
 124 275 l 1
 76 275 l 2
 69 275 59 278 52 291 c 0
 52 292 l 2
 51 295 51 298 51 300 c 2
 51 326 l 1
 124 326 l 1
 124 444 l 1
 51 444 l 1
 51 469 l 2
 51 474 51 474 52 476 c 0
 52 479 52 479 52 479 c 2
 56 489 66 495 76 495 c 2
 124 495 l 1
 124 610 l 2
 124 691 188 755 269 755 c 2
554 662 m 1
 554 655 555 648 555 640 c 0
 555 639 555 639 555 638 c 1
 580 662 l 1
 554 662 l 1
EndSplineSet
EndChar

StartChar: percent
Encoding: 37 37 266
Width: 828
VWidth: 0
Flags: W
HStem: -1 2<221.262 223.661> 1 0 25 55<574 688.948> 322 56<560 676> 402 56<154 270> 700 55<141.007 256>
VStem: 64 56<479.051 502 502 695.659> 290 56<460.515 678.948> 484 56<101.052 126 126 319.485> 710 56<115 301>
LayerCount: 2
Fore
SplineSet
256 700 m 1
 154 700 l 2
 150 700 141 698 141 696 c 0
 122 689 125 679 120 665 c 1
 120 492 l 2
 120 486 121 480 122 479 c 0
 130 461 140 464 154 458 c 1
 256 458 l 2
 260 458 269 460 270 460 c 0
 288 468 285 479 290 492 c 1
 290 665 l 2
 290 670 289 678 288 679 c 0
 280 696 270 694 256 700 c 1
165 755 m 2
 245 755 l 2
 301 755 346 710 346 654 c 2
 346 502 l 2
 346 446 301 402 245 402 c 2
 165 402 l 2
 109 402 64 446 64 502 c 2
 64 654 l 2
 64 710 109 755 165 755 c 2
676 322 m 1
 574 322 l 2
 569 322 561 320 560 320 c 0
 542 312 545 301 540 288 c 1
 540 115 l 2
 540 110 541 102 542 101 c 0
 550 84 560 86 574 80 c 1
 676 80 l 2
 680 80 688 82 689 84 c 0
 706 91 705 101 710 115 c 1
 710 288 l 2
 710 294 708 300 708 301 c 0
 700 319 690 316 676 322 c 1
585 378 m 2
 665 378 l 2
 721 378 766 334 766 278 c 2
 766 126 l 2
 766 70 721 25 665 25 c 2
 585 25 l 2
 529 25 484 70 484 126 c 2
 484 278 l 2
 484 334 529 378 585 378 c 2
199 18 m 1
 202 22 205 29 206 30 c 2
 606 760 l 2
 610 766 612 770 614 774 c 1
 619 770 624 766 625 765 c 2
 638 759 l 1
 635 754 631 748 630 746 c 2
 230 16 l 2
 228 10 225 6 222 2 c 1
 218 5 212 10 211 11 c 2
 199 18 l 1
199 18 m 1
 198 19 195 20 194 21 c 0
 192 22 196 12 196 12 c 1
 196 11 l 1
 196 12 198 15 199 18 c 1
226 1 m 1
 225 1 224 1 222 2 c 1
 221 1 221 0 220 -1 c 0
 219 -2 224 0 226 1 c 1
226 1 m 1
 229 1 l 1
 230 1 l 1
 230 0 229 0 226 1 c 1
638 759 m 1
 639 758 641 756 642 755 c 0
 645 754 640 764 640 764 c 1
 640 765 l 1
 640 764 639 761 638 759 c 1
610 775 m 1
 611 775 612 774 614 774 c 1
 615 775 615 776 616 776 c 0
 618 779 612 776 610 775 c 1
610 775 m 1
 608 775 l 1
 606 775 l 1
 606 775 608 776 610 775 c 1
EndSplineSet
Validated: 37
EndChar

StartChar: ampersand
Encoding: 38 38 267
Width: 675
VWidth: 0
Flags: W
HStem: 25 93<201.925 480.968> 250 49<435.18 486 580 643.598> 415 63<230 251 266 308.862 308.862 310.999 310.999 311> 675 83<217.345 490.002>
VStem: 102 94<122.633 169 169 405.157> 120 92<487.268 532 532 640> 486 94<123.526 250>
LayerCount: 2
Fore
SplineSet
238 758 m 2xf6
 435 758 l 2
 479 756 508 734 514 675 c 1
 250 675 l 2
 231 672 228 671 220 662 c 0
 220 662 215 655 214 649 c 2
 212 646 l 1
 212 516 l 2xf6
 212 494 230 478 251 478 c 2
 302 478 l 2
 306 476 306 476 309 476 c 0
 309 475 311 475 311 475 c 2
 320 471 326 465 330 459 c 0
 332 455 332 451 332 449 c 2
 332 415 l 1
 234 415 l 2
 212 415 196 396 196 378 c 2
 196 155 l 2
 196 132 215 118 234 118 c 2
 449 118 l 2
 470 118 486 135 486 156 c 2
 486 250 l 1
 459 250 l 2
 445 250 435 261 435 274 c 0
 435 288 445 299 459 299 c 2
 650 299 l 1
 648 268 636 254 606 250 c 2
 580 250 l 1
 580 170 l 2
 580 90 515 25 434 25 c 2
 249 25 l 2
 168 25 102 89 102 169 c 2
 102 365 l 2xfa
 102 378 105 409 169 424 c 2
 266 449 l 1
 169 472 l 2
 150 478 120 496 120 532 c 2
 120 670 l 1
 120 671 l 2
 122 719 161 758 238 758 c 2xf6
120 670 m 1
 120 674 l 1
 88 650 l 1
 118 640 l 1
 120 670 l 1
EndSplineSet
Validated: 5
EndChar

StartChar: OE
Encoding: 338 338 268
Width: 871
VWidth: 0
Flags: W
HStem: 25 93<221.419 412 505 764.248> 335 93<505 712.051> 662 93<221.419 412 505 741.606>
VStem: 122 93<123.526 170 170 656.474> 412 93<118 335 428 662>
LayerCount: 2
Fore
SplineSet
268 755 m 2
 749 755 l 1
 749 709 l 2
 749 682 728 662 702 662 c 2
 505 662 l 1
 505 428 l 1
 672 428 l 2
 702 425 720 406 720 381 c 0
 720 345 684 336 672 335 c 1
 505 335 l 1
 505 118 l 1
 725 118 l 2
 754 115 772 96 772 71 c 0
 772 46 752 26 725 25 c 2
 268 25 l 2
 188 25 122 90 122 170 c 2
 122 610 l 2
 122 690 188 755 268 755 c 2
412 662 m 1
 254 662 l 2
 232 662 215 645 215 624 c 2
 215 156 l 2
 215 135 232 118 254 118 c 2
 412 118 l 1
 412 662 l 1
EndSplineSet
EndChar

StartChar: oe
Encoding: 339 339 269
Width: 890
VWidth: 0
Flags: W
HStem: 24 92<201.925 386.566 496.097 719.822> 250 41<486 721> 429 92<201.925 387.413 497.127 708.667>
VStem: 102 94<123.526 170 170 421.968> 392 94<146.37 250 291 418.738> 721 93<291 394.718>
LayerCount: 2
Fore
SplineSet
249 521 m 2
 340 521 l 2
 371 521 400 511 425 494 c 2
 439 484 l 1
 454 494 l 2
 478 511 506 521 539 521 c 2
 669 521 l 2
 749 521 814 456 814 375 c 2
 814 250 l 1
 486 250 l 1
 486 169 l 2
 488 155 488 154 491 146 c 0
 499 129 518 116 536 116 c 2
 761 116 l 1
 752 54 709 24 631 24 c 2
 536 24 l 2
 502 24 474 34 451 50 c 2
 438 61 l 1
 422 51 l 2
 399 35 371 25 340 25 c 2
 249 25 l 2
 168 25 102 90 102 170 c 2
 102 375 l 2
 102 456 168 521 249 521 c 2
670 429 m 1
 536 429 l 2
 531 429 525 428 519 425 c 0
 501 418 492 402 490 395 c 0
 489 392 489 389 486 378 c 1
 486 291 l 1
 721 291 l 1
 721 378 l 2
 721 382 720 389 718 395 c 0
 710 414 695 421 688 425 c 0
 685 426 664 430 670 429 c 1
354 428 m 2
 234 428 l 2
 212 428 196 411 196 390 c 2
 196 156 l 2
 196 135 212 118 234 118 c 2
 354 118 l 2
 375 118 392 135 392 156 c 2
 392 390 l 2
 392 411 375 428 354 428 c 2
EndSplineSet
EndChar

StartChar: ae
Encoding: 230 230 270
Width: 865
VWidth: 0
Flags: W
HStem: 0 90<503.183 702.185> 1 97<177.278 266.75> 226 80<176.984 290.875> 232 49<491 699> 411 93<196.996 393.475> 419 85<501.349 686.452>
VStem: 81 93<103.977 222.379> 399 92<120.415 226 281 406.457> 699 93<281 408.823>
LayerCount: 2
Fore
SplineSet
399 226 m 5x6380
 212 226 l 6
 191 226 174 211 174 189 c 6
 174 136 l 6
 174 105 204 98 212 98 c 6
 399 98 l 5
 399 226 l 5x6380
649 419 m 5x1780
 542 419 l 6
 538 419 531 418 525 415 c 4
 518 412 502 404 495 386 c 4
 494 384 494 379 491 368 c 5
 491 281 l 5
 699 281 l 5
 699 368 l 6
 699 374 699 379 695 386 c 4
 689 404 674 412 666 415 c 4
 664 416 649 419 649 419 c 5x1780
238 504 m 6x6b80
 309 504 l 6x6b80
 358 504 396 492 425 472 c 6
 440 461 l 5
 454 472 l 6
 479 492 510 504 544 504 c 6
 646 504 l 6
 728 504 792 439 792 359 c 6
 792 232 l 5
 491 232 l 5
 491 142 l 6
 494 129 492 129 496 120 c 4
 505 102 522 90 542 90 c 6
 740 90 l 5
 732 34 699 0 615 0 c 6
 548 0 l 6x9780
 446 0 440 22 386 54 c 6
 376 59 l 5
 224 8 l 6
 206 2 191 1 178 1 c 4
 100 1 81 68 81 126 c 6
 81 220 l 6
 81 271 105 306 175 306 c 4
 190 306 208 305 226 301 c 6
 399 256 l 5
 399 374 l 6
 399 389 384 410 361 411 c 6
 174 411 l 5
 178 448 191 504 238 504 c 6x6b80
174 411 m 5
 148 411 l 5
 172 386 l 5
 172 388 l 4
 172 392 172 401 174 411 c 5
EndSplineSet
EndChar

StartChar: AE
Encoding: 198 198 271
Width: 1057
VWidth: 0
Flags: W
HStem: 2 94<614 982.62> 171 93<275 521> 312 93<614 891> 640 92<614 961.438>
VStem: 521 93<96 171 264 312 405 640>
LayerCount: 2
Fore
SplineSet
521 264 m 5
 521 682 l 5
 275 264 l 5
 521 264 l 5
511 732 m 5
 521 735 l 5
 521 758 l 5
 496 732 l 5
 511 732 l 5
511 732 m 5
 968 732 l 5
 968 686 l 6
 968 660 948 640 921 640 c 6
 614 640 l 5
 614 405 l 5
 891 405 l 6
 921 402 939 384 939 359 c 4
 939 322 902 314 891 312 c 5
 614 312 l 5
 614 96 l 5
 944 96 l 6
 972 94 991 75 991 50 c 4
 991 24 971 5 944 2 c 6
 521 2 l 5
 521 171 l 5
 228 171 l 5
 144 32 l 6
 126 1 95 -2 82 -2 c 4
 50 -2 25 16 25 44 c 4
 25 52 28 62 34 76 c 6
 391 666 l 6
 410 694 455 722 501 731 c 6
 511 732 l 5
EndSplineSet
EndChar

StartChar: asciitilde
Encoding: 126 126 272
Width: 621
VWidth: 0
Flags: W
HStem: 146 112<370.038 495.125> 238 111<128.5 252.375>
LayerCount: 2
Fore
SplineSet
182 349 m 0x40
 184 349 l 0
 185 349 186 349 186 349 c 2x40
 276 338 344 276 438 258 c 2
 439 258 l 1
 440 258 l 2
 442 258 l 0
 479 258 538 299 551 308 c 0
 555 311 559 311 561 311 c 0
 578 311 596 289 596 271 c 0
 596 266 594 260 589 256 c 2
 578 248 l 1
 580 245 l 1
 511 170 469 146 441 146 c 0
 441 146 441 146 440 146 c 0
 439 146 438 146 438 146 c 2x80
 348 159 280 219 186 238 c 2
 185 238 l 1
 184 238 l 2
 184 238 182 238 181 238 c 0
 145 238 86 196 72 188 c 0
 69 185 65 184 62 184 c 0
 46 184 28 206 28 224 c 0
 28 230 30 235 35 239 c 2
 46 248 l 1
 45 250 l 1
 112 326 155 349 182 349 c 0x40
45 250 m 1
 38 259 l 1
 36 240 l 1
 45 250 l 1
580 245 m 1
 586 236 l 1
 588 255 l 1
 580 245 l 1
EndSplineSet
Validated: 5
EndChar

StartChar: germandbls
Encoding: 223 223 276
Width: 642
VWidth: 0
Flags: W
HStem: 25 93<325.802 462.156> 350 78<196 437.125> 676 78<199.91 436.515>
VStem: 102 94<-184 -181 -180.984 350 428 672.209> 441 93<431.593 446 448 465 465 669.294> 468 92<124.831 156 156 343.251>
LayerCount: 2
Fore
SplineSet
196 636 m 0xf8
 196 636 196 636 196 635 c 2
 196 428 l 1
 402 428 l 2
 424 428 441 444 441 465 c 2
 441 638 l 2
 441 669 410 676 402 676 c 2
 234 676 l 2
 210 676 196 658 196 636 c 0xf8
102 638 m 2
 102 709 156 754 235 754 c 2
 402 754 l 2
 490 754 534 705 534 630 c 2
 534 452 l 2
 534 448 534 449 534 448 c 2xf8
 532 446 l 1
 532 446 532 446 532 445 c 0
 528 429 511 415 494 415 c 1
 469 390 l 1
 494 365 l 1
 520 365 560 334 560 302 c 2
 560 142 l 2
 560 66 490 25 436 25 c 2
 355 25 l 2
 349 25 348 26 345 28 c 0
 328 35 306 71 302 118 c 1
 429 118 l 2
 450 118 468 134 468 156 c 2
 468 312 l 2xf4
 468 320 460 350 429 350 c 2
 196 350 l 1
 196 -169 l 2
 196 -192 172 -202 150 -202 c 0
 132 -201 115 -196 106 -184 c 0
 106 -182 106 -181 106 -181 c 2
 105 -180 105 -180 105 -180 c 2
 104 -179 104 -178 104 -178 c 2
 104 -175 102 -172 102 -169 c 2
 102 638 l 2
302 118 m 1
 301 124 301 130 301 135 c 0
 301 138 301 142 301 142 c 1
 276 118 l 1
 302 118 l 1
532 446 m 1
 528 428 534 446 532 446 c 1
EndSplineSet
EndChar
